<svg xmlns="http://www.w3.org/2000/svg" id="Layer_1" width="127.882" height="148.009" xmlns:xlink="http://www.w3.org/1999/xlink" viewBox=".001 10.031 127.882 148.009"><style> <![CDATA[
        #circ,#circ2{stroke:#E0DED8;-webkit-animation:spin 2s cubic-bezier(.475,.105,.5,.905) infinite;-webkit-transform-origin:64px 84px;-webkit-transform:rotate(-32deg);-moz-animation:spin 2s cubic-bezier(.475,.105,.5,.905) infinite;-moz-transform-origin:64px 84px;-moz-transform:rotate(-32deg);-ms-animation:spin 2s cubic-bezier(.475,.105,.5,.905) infinite;-ms-transform-origin:64px 84px;-ms-transform:rotate(-32deg);animation:spin 2s cubic-bezier(.475,.105,.5,.905) infinite;transform-origin:64px 84px;transform:rotate(-32deg);stroke-dasharray:150;stroke-dashoffset:120}#rr{fill:#E0DED8}@-webkit-keyframes spin{0%{stroke-offset:130;-webkit-transform:rotate(0);-moz-transform:rotate(0);-ms-transform:rotate(0);transform:rotate(0)}50%{stroke-dashoffset:0}100%{stroke-offset:130;-webkit-transform:rotate(900deg);-moz-transform:rotate(900deg);-ms-transform:rotate(900deg);transform:rotate(900deg)}}
      ]]></style><defs><path id="SVGID_1_" d="M0 10.03h127.882v148.01H.002z"/></defs><clipPath id="SVGID_2_"><use xlink:href="#SVGID_1_" overflow="visible"/></clipPath><path id="circ" fill="none" stroke="#F00" stroke-width="4" stroke-miterlimit="10" d="M84.008 25.425c24.352 8.34 41.87 31.432 41.87 58.61 0 27.18-17.52 50.273-41.87 58.612" clip-path="url(#SVGID_2_)" stroke-linejoin="round"/><g><defs><path id="SVGID_3_" d="M0 10.03h127.882v148.01H.002z"/></defs><clipPath id="SVGID_4_"><use xlink:href="#SVGID_3_" overflow="visible"/></clipPath><path id="circ2" fill="none" stroke="#F00" stroke-width="4" stroke-miterlimit="10" d="M43.874 142.647c-24.36-8.33-41.87-31.42-41.868-58.61 0-27.18 17.508-50.272 41.87-58.612" clip-path="url(#SVGID_4_)" stroke-linejoin="round"/></g><g><path id="rr" fill="#F00" d="M 8.7038456,19.584913 V 8.5993183 l 0.6779682,0.4356299 0.6779682,0.4356299 3.717289,2.7304359 3.71729,2.730436 0.802498,-0.442967 0.802499,-0.442968 3.343551,-2.517268 3.343551,-2.5172688 0.498268,-0.2320932 0.498269,-0.2320932 -0.0018,0.8620864 -0.0018,0.8620868 -4.558983,3.343214 -4.558984,3.343214 -3.437858,-2.52026 -3.437858,-2.52026 h -0.287608 -0.287664 v 9.326817 9.326817 H 9.4571436 8.7038456 Z m -3.3145111,0.01287 v -9.14394 H 5.5598033 5.730272 l 0.5828293,0.378627 0.5828292,0.378626 v 8.765312 8.765311 h -0.753298 -0.753298 z m 23.2015775,1.645909 v -7.498029 h -0.383437 -0.383436 l -4.958192,3.657575 -4.958191,3.657575 h -0.235997 -0.235997 l -2.708653,-2.033819 -2.708652,-2.033818 v -0.913828 -0.913829 l 0.225989,0.14474 0.225989,0.144739 2.612936,1.920357 2.612936,1.920356 5.703802,-4.228634 5.703802,-4.228634 0.496848,-0.231432 0.496849,-0.231432 v 9.18307 9.18307 H 29.34421 28.590912 Z"/></g></svg>