<?xml version="1.0" encoding="UTF-8" standalone="no"?>
<!-- Created with Inkscape (http://www.inkscape.org/) -->

<svg
   width="256"
   height="256"
   viewBox="0 0 67.733332 67.733333"
   version="1.1"
   id="svg5"
   xml:space="preserve"
   xmlns="http://www.w3.org/2000/svg"
   xmlns:svg="http://www.w3.org/2000/svg"><defs
     id="defs2" /><g
     id="layer1">
     <path
       style="fill:#ffffff;stroke-width:0.292843"
       d="m 36.977969,57.001362 c -2.69645,-1.363299 -3.439791,-5.06054 -1.478214,-7.352381 1.67052,-1.951777 1.866652,-1.975206 15.730517,-1.87889 11.154282,0.07749 12.526254,0.139255 13.348898,0.600945 1.427269,0.801021 2.21784,2.169828 2.346842,4.063355 0.129695,1.903684 -0.538255,3.218304 -2.229119,4.387218 l -0.975554,0.674413 -12.895851,-0.0068 C 39.523365,57.483322 37.812025,57.423002 36.977969,57.001315 Z M 4.6802188,38.048537 c -1.950331,-1.048402 -2.747389,-2.359335 -2.747389,-4.518683 0,-1.609707 0.712467,-2.967559 2.117402,-4.035446 0.815767,-0.620061 0.836053,-0.620476 30.3812562,-0.620476 h 29.564945 l 1.062038,0.830988 c 1.365667,1.068561 1.928825,2.211517 1.928825,3.914644 0,1.703086 -0.563143,2.846056 -1.928749,3.914645 l -1.061967,0.830987 -29.224808,0.07463 C 8.6768308,38.506466 5.4541418,38.464556 4.6802188,38.048537 Z m 0.34163,-18.947287 c -2.095855,-0.76679 -3.089019,-2.230941 -3.089019,-4.553921 0,-1.690154 0.770181,-3.078861 2.290403,-4.129811 L 5.1987858,9.743106 H 18.050942 c 11.270566,0 12.974138,0.05938 13.843393,0.482526 1.838925,0.895175 2.968207,3.204687 2.5868,5.290298 -0.261013,1.42727 -1.950403,3.325715 -3.302263,3.710906 -1.70905,0.486967 -24.7855792,0.376171 -26.1570232,-0.125586 z"
       id="path302" /></g></svg>
