<svg width="50" height="101" viewBox="0 0 50 101" fill="none" xmlns="http://www.w3.org/2000/svg">
<path d="M34.0273 77.0823H36V81.8449C36 85.2388 33.2957 88 29.9717 88H19.0283C15.7043 88 13 85.2388 13 81.8449V77.0823H14.9727V81.8449C14.9727 84.1282 16.792 85.9858 19.0283 85.9858H29.9717C32.208 85.9858 34.0273 84.1282 34.0273 81.8449V77.0823ZM29.1942 74.7082L27.6599 73.4421L25.4852 76.1894V65H23.5125V76.1881L21.3403 73.4423L19.8057 74.7079L24.4986 80.64L29.1942 74.7082Z" fill="white"/>
<path d="M34.0273 26.0823H36V30.8449C36 34.2388 33.2957 37 29.9717 37H19.0283C15.7043 37 13 34.2388 13 30.8449V26.0823H14.9727V30.8449C14.9727 33.1282 16.792 34.9858 19.0283 34.9858H29.9717C32.208 34.9858 34.0273 33.1282 34.0273 30.8449V26.0823ZM29.1942 23.7082L27.6599 22.4421L25.4852 25.1894V14H23.5125V25.1881L21.3403 22.4423L19.8057 23.7079L24.4986 29.64L29.1942 23.7082Z" fill="black"/>
</svg>
