<?xml version="1.0" encoding="UTF-8" standalone="no"?>
<svg
   id="Group_5514"
   data-name="Group 5514"
   width="19.923"
   height="20"
   viewBox="0 0 19.923 20"
   version="1.1"
   xml:space="preserve"
   xmlns="http://www.w3.org/2000/svg"
   xmlns:svg="http://www.w3.org/2000/svg"><defs
     id="defs11725"><clipPath
       id="clip-path"><rect
         id="Rectangle_3250"
         data-name="Rectangle 3250"
         width="19.923"
         height="20"
         fill="#fff" /></clipPath></defs><path
     id="path1"
     d="M 8.8828833,19.836 C 4.6487958,19.252176 1.3317035,16.247641 0.39667891,12.149415 0.12539215,10.960374 0.17478756,9.0033162 0.50764218,7.7529582 1.4688516,4.1422229 4.3492232,1.4160772 8.0682453,0.59718774 c 0.9789924,-0.2155671 3.0843917,-0.2155671 4.0633797,0 3.71874,0.81882726 6.596846,3.54256136 7.561346,7.15577046 0.390361,1.4623823 0.390361,3.3301848 0,4.7925718 -1.113545,4.171561 -4.789138,7.117586 -9.145411,7.330108 -0.5595094,0.02727 -1.308616,0.0096 -1.6646767,-0.03966 z M 10.34569,19.097075 c -0.03707,-0.23835 -0.07846,-0.446814 -0.09199,-0.463243 -0.04219,-0.05126 -2.368554,-0.219973 -2.4141786,-0.175061 -0.077767,0.07657 0.6297919,0.883805 0.8522885,0.972371 0.1193486,0.04751 0.5554681,0.0893 0.9691472,0.09284 l 0.7521489,0.0067 z m 0.375706,-0.0733 c 0,-0.408464 -0.03013,-0.495276 -0.155364,-0.447951 -0.162251,0.0613 -0.196263,0.3351 -0.09008,0.725166 0.109233,0.401257 0.245455,0.247405 0.245456,-0.277215 z m 1.045063,0.404682 c 0.218275,0 0.348351,-0.203874 0.455444,-0.713792 0.05887,-0.280412 0.04775,-0.331279 -0.05218,-0.237399 -0.06995,0.06573 -0.185782,0.09732 -0.25749,0.07018 -0.07173,-0.02709 -0.23299,0.114188 -0.358386,0.313961 -0.125415,0.199757 -0.329064,0.437089 -0.452567,0.527398 -0.219037,0.160168 -0.215976,0.162671 0.125023,0.101893 0.192252,-0.0343 0.435315,-0.06231 0.540123,-0.06231 z M 7.9369392,18.842523 C 7.5216921,18.357703 7.4912484,18.342705 6.5674479,18.16837 6.0478053,18.070296 5.6071202,18.005344 5.5881413,18.024028 c -0.018988,0.01867 0.1282907,0.203838 0.3272558,0.411466 0.3344204,0.348973 0.8920758,0.579586 2.2683785,0.938083 0.2146944,0.05593 0.1657887,-0.04928 -0.2468364,-0.531054 z m 5.0263208,0.268259 c 1.111657,-0.337724 2.634354,-1.150043 2.690192,-1.435132 0.01441,-0.07352 0.121578,-0.451808 0.23819,-0.840725 0.116612,-0.388907 0.191224,-0.727574 0.165814,-0.752602 -0.07593,-0.07467 -1.432965,0.28782 -1.68847,0.451052 -0.130093,0.08312 -0.223578,0.20659 -0.207762,0.274409 0.01585,0.06783 -0.191908,0.323562 -0.46161,0.568314 -0.379509,0.344398 -0.549367,0.433915 -0.751233,0.395923 -0.213331,-0.04017 -0.239127,-0.02331 -0.141611,0.09234 0.130862,0.155232 0.129336,0.15815 -0.169223,0.322321 -0.315094,0.173258 -0.06156,0.144508 1.268434,-0.143832 1.562256,-0.338701 1.846106,-0.381201 1.269184,-0.190027 -0.256352,0.08494 -0.971712,0.253651 -1.589708,0.374891 -1.180035,0.231521 -1.146791,0.210198 -1.355358,0.869339 -0.08798,0.278021 -0.133988,0.277157 0.733161,0.01369 z M 5.5241915,18.188924 C 5.3168605,17.92424 4.6312684,17.59269 4.2996683,17.596748 c -0.028487,6.31e-4 0.2704552,0.206139 0.6643113,0.457319 0.3938487,0.25117 0.7377416,0.456673 0.7642002,0.456673 0.02646,0 -0.065324,-0.144819 -0.2039883,-0.321816 z m 4.6428605,-0.315486 c -0.03594,-0.294434 -0.06573,-0.654971 -0.0662,-0.801186 -8.78e-4,-0.264564 -0.0061,-0.266173 -1.0625534,-0.335669 -0.5839125,-0.03843 -1.308293,-0.0974 -1.6097402,-0.131094 l -0.5480903,-0.06123 0.218717,0.549884 c 0.3872437,0.973555 0.5335439,1.155085 0.9862294,1.223698 0.2250043,0.0341 0.8001233,0.06849 1.2780307,0.07646 l 0.8689308,0.01449 z m 0.847678,-0.152955 c 0.125146,-0.37857 0.226874,-0.745657 0.226044,-0.815765 -8.83e-4,-0.08474 -0.174925,-0.127455 -0.519378,-0.127455 -0.584459,0 -0.563067,-0.04765 -0.451344,1.004735 0.05896,0.555551 0.09214,0.626771 0.291845,0.626771 0.186613,0 0.264354,-0.118153 0.452833,-0.688286 z m -3.7472533,0 C 7.1318763,17.45409 6.964348,17.064054 6.8951845,16.853737 6.8011073,16.567662 6.7127617,16.471174 6.5444177,16.470636 6.3418115,16.470022 4.8564409,16.148148 4.3605091,15.997439 c -0.1690761,-0.05138 -0.1479074,0.02745 0.1445063,0.538256 0.6529255,1.14052 0.7535659,1.22681 1.6923612,1.451133 0.465882,0.111328 0.9527184,0.205912 1.0818519,0.210202 l 0.2347918,0.0083 z M 4.8247791,17.261618 C 4.661706,17.023264 4.4224552,16.613335 4.2931084,16.35067 4.1294259,16.018281 3.9766074,15.853267 3.7903934,15.807873 3.6432416,15.771996 3.1562866,15.562478 2.7082611,15.342292 L 1.893678,14.941928 2.0746076,15.222286 c 0.7818383,1.211464 1.5997017,2.004191 2.3314195,2.259786 0.763775,0.266782 0.7551938,0.271302 0.418752,-0.220454 z M 17.077711,16.554094 c 0.604411,-0.649093 1.129019,-1.376194 0.933547,-1.293857 -0.05025,0.02116 -0.472101,0.195112 -0.937494,0.386576 l -0.846174,0.348103 -0.160886,0.630546 c -0.0885,0.346801 -0.193208,0.713475 -0.232711,0.814842 -0.134106,0.344048 0.556147,-0.147796 1.243718,-0.88621 z M 10.023292,15.834041 C 9.9919294,15.371352 9.9330164,14.979667 9.8924126,14.963619 9.8517966,14.947569 9.7304071,14.870089 9.6226356,14.79139 9.462398,14.674398 9.4485536,14.613005 9.5466576,14.454542 c 0.065987,-0.106576 0.089285,-0.240095 0.051759,-0.296703 -0.037505,-0.0566 -0.5367277,-0.132426 -1.1093975,-0.168516 -0.572673,-0.03608 -1.253844,-0.0943 -1.5137139,-0.12935 l -0.4724883,-0.06375 0.043197,0.547306 c 0.061542,0.779834 0.237167,1.857202 0.3257647,1.99834 0.069862,0.11129 1.551296,0.284775 2.7263564,0.319281 l 0.482195,0.01418 z m 1.21598,0.537283 c 0,-0.247546 -0.05286,-0.316276 -0.284835,-0.370277 -0.303996,-0.07074 -0.772237,-0.432951 -0.702781,-0.543586 0.02296,-0.03654 -9.87e-4,-0.133159 -0.05341,-0.214609 -0.113045,-0.175919 -0.132113,0.45286 -0.03186,1.050051 0.06394,0.380862 0.06624,0.382391 0.568524,0.382391 0.4906,0 0.504329,-0.0088 0.504329,-0.30397 z M 6.6122833,15.630103 c -0.072862,-0.406597 -0.160264,-1.00312 -0.1942335,-1.325607 -0.048109,-0.456608 -0.100211,-0.586355 -0.2355701,-0.586452 -0.1888731,-1.47e-4 -2.131754,-0.452056 -2.4265835,-0.564423 -0.1482748,-0.05651 -0.1812593,-0.01266 -0.1812593,0.241071 0,0.412151 0.2710856,1.66419 0.4532579,2.093433 0.1504375,0.354458 0.3741036,0.446352 1.8772072,0.771229 0.8769098,0.189538 0.8570598,0.207188 0.7071813,-0.629251 z m 9.1923107,0.330907 c 0.357729,-0.09783 0.374875,-0.124659 0.497252,-0.778568 0.14249,-0.761313 0.271259,-1.976001 0.208892,-1.970528 -0.02252,0.0024 -0.343829,0.0905 -0.714109,0.196666 -0.626269,0.179624 -0.645674,0.193603 -0.27803,0.200361 0.465298,0.0091 0.795905,0.159831 0.795905,0.364192 0,0.08015 -0.139828,0.30261 -0.310732,0.494235 -0.20737,0.232528 -0.310722,0.457405 -0.310722,0.676104 0,0.18023 -0.0964,0.460957 -0.214211,0.623845 -0.236375,0.326809 -0.212619,0.340932 0.325755,0.193693 z M 3.7774122,15.0552 C 3.6656741,14.701759 3.5453649,14.107211 3.5100569,13.733972 L 3.44585,13.055376 2.5003716,12.601915 C 1.980359,12.352516 1.512539,12.128302 1.4607733,12.103668 c -0.1250178,-0.05951 0.00158,1.417108 0.1778086,2.073083 0.1167326,0.434631 0.2058902,0.55158 0.6063584,0.79533 0.4405507,0.268144 1.6586594,0.801515 1.7115608,0.749438 0.013246,-0.013 -0.067354,-0.312872 -0.1790983,-0.66632 z m 13.7948258,0.273912 c 0.642664,-0.282898 0.752162,-0.373597 0.975984,-0.80845 0.210662,-0.409272 0.252114,-0.63826 0.252114,-1.392764 v -0.90297 l -0.750933,0.364328 c -0.413009,0.200376 -0.90241,0.417664 -1.087543,0.482845 -0.300338,0.105735 -0.336644,0.160696 -0.336767,0.509757 -7.9e-5,0.215176 -0.06997,0.781276 -0.155227,1.257986 -0.08534,0.476708 -0.155145,0.883178 -0.155212,0.903282 -6.18e-4,0.07719 0.563176,-0.108333 1.257584,-0.414014 z M 1.4056647,13.604174 C 1.3481025,13.358414 1.299888,12.879136 1.2984942,12.539111 1.2964731,11.986898 1.2627614,11.889575 0.98523321,11.627801 L 0.67450627,11.334726 v 0.250553 c 0,0.469189 0.68018803,2.618918 0.79337993,2.507481 0.023338,-0.0229 -0.00464,-0.242836 -0.062224,-0.488586 z m 8.362734,-0.02072 c 0.068408,-0.186255 0.1243878,-0.513076 0.1243878,-0.726278 0,-0.306804 -0.028149,-0.364657 -0.1348638,-0.277444 -0.1474405,0.120477 -0.5901715,0.04763 -0.5901715,-0.09712 0,-0.04959 -0.067363,-0.09004 -0.1497129,-0.09004 -0.082337,0 -0.2109543,-0.12618 -0.2858028,-0.280408 C 8.6573898,11.957927 8.496573,11.817709 8.3748819,11.800555 8.2531875,11.783384 8.0716163,11.680156 7.9713869,11.571118 7.8711578,11.462083 7.6828886,11.372875 7.55301,11.372875 c -0.1298814,0 -0.3621642,-0.04714 -0.5161919,-0.104823 -0.1540276,-0.05768 -0.2981424,-0.08701 -0.3202525,-0.06527 -0.086715,0.0854 -0.241108,2.352889 -0.1652866,2.427539 0.100102,0.09853 1.5048728,0.260541 2.4144044,0.278429 L 9.6440172,13.9221 Z M 19.475862,11.88273 c 0.02314,-0.196294 0.07401,-0.533645 0.112873,-0.749678 l 0.07073,-0.392781 -0.269501,0.265322 c -0.148222,0.145924 -0.318214,0.265313 -0.377776,0.265313 -0.05961,0 -0.108285,0.167721 -0.108285,0.372699 0,0.366619 0.0036,0.369676 0.207783,0.187572 0.114282,-0.101819 0.234853,-0.158484 0.267932,-0.12592 0.03304,0.03255 -0.0604,0.136975 -0.207792,0.23203 -0.253499,0.163524 -0.267381,0.21749 -0.257715,1.002349 l 0.01019,0.829525 0.254693,-0.764764 c 0.140087,-0.420629 0.273657,-0.925378 0.296834,-1.121667 z M 6.3738662,13.386779 c 0.00154,-0.12619 0.048212,-0.688301 0.1038696,-1.249128 L 6.5789377,11.117946 6.3116129,10.925202 C 6.1645845,10.819187 6.0063611,10.63423 5.9600007,10.514188 5.8962507,10.349096 5.702668,10.253788 5.1653738,10.122939 4.7746869,10.027799 4.3567644,9.9223102 4.2366519,9.8885213 4.0403134,9.8333053 4.0002937,9.8974491 3.8402002,10.523505 3.6773897,11.160213 3.4879215,13.003878 3.5852009,13.00476 c 0.022671,4.02e-4 0.5772307,0.135775 1.2323509,0.301268 1.4672024,0.370642 1.552885,0.375093 1.5563144,0.08072 z m 9.6370628,-0.154026 c 0.561269,-0.176982 0.562591,-0.178399 0.597319,-0.636243 0.04403,-0.58037 -0.08136,-2.477795 -0.173348,-2.6244088 -0.04773,-0.07597 -0.346386,-0.03748 -0.959181,0.1236408 -0.48946,0.128676 -1.130192,0.266488 -1.423855,0.306249 l -0.533916,0.0723 -6.23e-4,0.423804 c -6.22e-4,0.233087 -0.03049,0.733532 -0.06675,1.1121 -0.06429,0.670314 -0.05977,0.688288 0.173838,0.688288 0.292382,0 0.618699,0.272769 0.618699,0.517157 0,0.0988 0.05828,0.205037 0.129468,0.236083 0.199201,0.08683 1.013978,-0.02207 1.638486,-0.218966 z m -5.943816,-0.349455 c -0.03307,-0.08137 -0.0576,-0.05714 -0.06256,0.06164 -0.00462,0.107495 0.02,0.167718 0.0544,0.133828 0.03444,-0.03392 0.0381,-0.121824 0.0083,-0.195441 z m 7.90461,-0.374825 c 0.711344,-0.339569 0.779586,-0.399122 0.809601,-0.7065 0.02352,-0.240975 -0.05679,-0.468842 -0.284842,-0.80775 C 18.3218,10.734585 18.177424,10.426777 18.175645,10.310206 18.173745,10.193632 18.068008,9.9311942 17.940412,9.7270074 L 17.708422,9.3557571 17.140931,9.582991 c -0.435302,0.1743028 -0.56148,0.2726549 -0.541699,0.422233 0.01423,0.10725 0.05633,0.826777 0.09368,1.598951 0.07842,1.621899 -0.04366,1.535584 1.278814,0.904295 z M 3.4724244,12.316085 c 5.312e-4,-0.322471 0.092267,-1.02009 0.2033728,-1.550248 C 3.7869102,10.235677 3.8678633,9.7935439 3.855697,9.7833231 3.84354,9.7731065 3.472435,9.6175711 3.0310502,9.4377016 2.589662,9.2578292 2.2023823,9.0690245 2.1704346,9.0181337 2.1385111,8.9672252 2.0490674,8.925603 1.9717251,8.925603 c -0.1844989,0 -0.5721835,1.614027 -0.5721835,2.382134 0,0.55779 0.01069,0.579064 0.4180335,0.832223 0.4063008,0.252515 1.4192722,0.737266 1.5758034,0.754105 0.042724,0.0048 0.078299,-0.255497 0.079038,-0.57798 z M 10.747291,12.15938 c 0.280555,-0.176704 0.284872,-0.175916 0.287975,0.05238 0.0029,0.192359 0.01958,0.204071 0.09989,0.06885 0.07591,-0.127765 0.236897,-0.156051 0.746538,-0.131137 0.357388,0.01742 0.66589,0.07933 0.685558,0.137414 0.01968,0.05815 0.115784,0.105635 0.213579,0.105635 0.09781,0 0.232962,0.05433 0.300368,0.120675 0.06746,0.0663 0.141875,0.100769 0.165473,0.07646 0.02357,-0.02431 0.07655,-0.49204 0.117691,-1.039411 l 0.07476,-0.995221 -1.38478,0.06743 c -0.761616,0.03707 -1.408232,0.102229 -1.436898,0.144771 -0.02866,0.04253 -0.191799,0.09581 -0.362513,0.118383 l -0.3103988,0.04099 0.2589378,0.114661 c 0.252928,0.111994 0.253531,0.114804 0.02589,0.121119 -0.210144,0.006 -0.2330463,0.05723 -0.2330463,0.523013 0,0.62868 0.1734953,1.025225 0.3502593,0.800537 0.06373,-0.08097 0.244006,-0.227969 0.400671,-0.32664 z M 10.61782,11.077871 c 0,-0.124159 0.265904,-0.21485 0.629922,-0.21485 0.401143,0 0.386829,0.161802 -0.02137,0.242185 -0.443741,0.08739 -0.608513,0.07998 -0.608513,-0.02729 z m -0.7250335,0.44796 V 10.659083 H 9.2814607 c -0.5925673,0 -0.6148163,0.0099 -0.7250347,0.32112 -0.1464195,0.413508 -0.1534575,0.392672 0.1325497,0.392672 0.2962986,0 0.5431585,0.26398 0.4971041,0.531592 -0.045755,0.265955 0.1637873,0.488097 0.4604466,0.488097 0.2399791,0 0.2462601,-0.02213 0.2462601,-0.866733 z M 1.3231816,10.939497 C 1.3546486,10.532896 1.4645665,9.8894834 1.5675494,9.5096946 L 1.7547955,8.8191679 1.2791311,8.3508835 0.80346857,7.8825971 0.68720028,8.5399154 C 0.62325706,8.9014375 0.5709301,9.6021176 0.5709301,10.09698 c 0,0.807412 0.0271049,0.934749 0.26421,1.240769 0.14531819,0.187564 0.3017239,0.341031 0.3475693,0.341031 0.045827,0 0.1090578,-0.332674 0.1404722,-0.739283 z m 6.9073039,-0.121431 c 0.1027288,-0.121866 0.063029,-0.158168 -0.2326917,-0.212787 -0.1961017,-0.03623 -0.4645927,-0.05041 -0.5966477,-0.03152 -0.2290083,0.03273 -0.231683,0.04257 -0.057958,0.212779 0.2205024,0.216037 0.7168791,0.23367 0.8872931,0.03151 z m 0.8854781,-0.362921 c 0.035207,-0.05609 0.1894345,-0.0974 0.3427309,-0.0918 l 0.2787257,0.01019 -0.258943,0.08164 c -0.156584,0.04936 -0.1906388,0.08568 -0.086147,0.09181 0.4380143,0.02576 0.5004597,-0.0852 0.5004597,-0.8893373 0,-0.7166136 -0.012867,-0.763064 -0.1686194,-0.6097143 -0.1393883,0.1372228 -0.1485841,0.2225687 -0.05301,0.4924204 0.063577,0.1795345 0.08869,0.3692708 0.055804,0.4216384 C 9.6418875,10.097477 9.3749098,9.8557625 9.3749098,9.643214 9.3749098,9.4022195 8.5706724,9.1296591 8.4459206,9.3283771 8.3902116,9.4171461 8.2663333,9.4395576 8.0825142,9.3941461 7.6692853,9.292038 7.430535,9.4067061 7.2420186,9.7978171 6.9459243,10.41211 7.0584517,10.472706 8.6178701,10.538734 c 0.238746,0.01019 0.4628917,-0.02751 0.4980992,-0.0836 z m 3.4956874,0.03552 0.699144,-0.06499 -0.0026,-0.7245343 C 13.306295,9.0406121 13.161661,7.7197497 13.083774,7.652708 13.066054,7.63746 12.515552,7.671493 11.860435,7.728358 10.60121,7.8376529 10.414853,7.9190086 10.21025,8.4488176 10.083197,8.7778747 9.9541215,10.305634 10.041625,10.445022 c 0.0785,0.125071 1.453068,0.149492 2.569871,0.04563 z m 2.667094,-0.450566 C 15.762964,9.9285432 16.219923,9.7999772 16.29421,9.7543959 16.451162,9.6581119 16.360402,9.1879508 15.930537,7.8707501 15.69849,7.1596792 15.644912,7.0764375 15.448225,7.1213955 15.326522,7.1492094 14.785363,7.270924 14.24565,7.3918601 13.705937,7.5127962 13.257346,7.620576 13.248798,7.6313669 c -0.0091,0.010813 0.02181,0.2720008 0.06751,0.5804569 0.04568,0.3084568 0.08705,0.8132057 0.09195,1.1216646 0.0049,0.3084578 0.03841,0.6688836 0.07422,0.8009476 0.07506,0.276096 0.221885,0.268386 1.796255,-0.09433 z M 5.7579369,9.7340289 C 5.654081,9.5056581 5.5165306,9.2670515 5.4522697,9.203787 5.3880186,9.1405197 5.3354333,8.983224 5.3354333,8.8542304 c 0,-0.1289881 -0.046613,-0.2345278 -0.1035775,-0.2345278 -0.1338531,0 -0.130602,0.044817 0.051767,0.7137865 0.183107,0.6716049 0.1800866,0.6388961 0.051756,0.5608342 -0.056955,-0.034671 -0.1035754,-0.1750285 -0.1035754,-0.3119278 0,-0.1368994 -0.041344,-0.2489064 -0.091814,-0.2489064 -0.050504,0 -0.124159,-0.2123546 -0.1636944,-0.4718994 C 4.886891,8.2746207 4.819579,8.0965574 4.7118744,8.1620901 c -0.123751,0.075293 -0.652159,1.4790463 -0.5825496,1.5475784 0.088632,0.087262 1.3264266,0.4239335 1.5894087,0.4323125 l 0.2279811,0.0072 z M 4.2821077,8.798149 C 4.501257,8.2409835 4.6116229,7.7847288 4.6089154,7.4470514 L 4.6050537,6.9372041 3.923896,6.6375341 3.2427391,6.3378655 3.0435311,6.5865491 C 2.7388027,6.9669632 1.9195354,8.6421929 1.9862526,8.7484638 c 0.07122,0.1134547 1.6848501,0.8909322 1.8491018,0.8909322 0.063838,0 0.2649856,-0.3785597 0.4469752,-0.841247 z M 17.253386,9.4229024 C 17.69564,9.2355988 17.764568,9.1670543 17.764568,8.91452 c 0,-0.1605376 0.05508,-0.4947988 0.122509,-0.7428028 0.115105,-0.4237283 0.102229,-0.4914439 -0.213641,-1.1231321 -0.184882,-0.369716 -0.374602,-0.6722127 -0.421606,-0.6722127 -0.04696,0 -0.396448,0.1432753 -0.776549,0.3183874 -0.534454,0.2462192 -0.676191,0.3559995 -0.625338,0.4843552 0.08186,0.2065009 0.530813,1.8002509 0.614128,2.1798698 0.07401,0.3371722 0.132855,0.3419397 0.789315,0.063932 z M 2.3001775,7.7224186 C 2.5391739,7.2344673 2.8164125,6.7115826 2.9162624,6.5604496 L 3.0978016,6.2856653 2.5933899,5.8232214 C 2.1935928,5.4566926 2.0592138,5.3851055 1.945449,5.4780617 1.5434676,5.8065014 0.82603004,7.4707668 0.93744716,7.816362 0.99744116,8.002463 1.6618979,8.623496 1.7915536,8.6146497 1.8322896,8.6120097 2.061173,8.2103692 2.3001775,7.7224186 Z M 12.71813,7.5353737 c 0.386916,-0.055596 0.390539,-0.060387 0.323117,-0.4291667 -0.08937,-0.4886776 -0.212915,-0.6278642 -0.557378,-0.6278642 -0.246747,0 -0.277238,-0.033216 -0.234186,-0.2549224 0.04731,-0.2437148 0.232512,-0.3655386 0.232512,-0.1529555 0,0.056079 0.06995,0.1019674 0.155352,0.1019674 0.195755,0 0.19432,-0.069082 -0.01693,-0.8172942 -0.183981,-0.6514454 -0.219693,-0.6723333 -0.892064,-0.5217383 -0.275635,0.061744 -0.280768,0.073945 -0.123599,0.293846 0.09018,0.1261884 0.219605,0.2308904 0.287581,0.2326775 0.06803,0.00154 0.208778,0.066795 0.312885,0.1444783 0.179094,0.1336297 0.179841,0.1554244 0.014,0.4046353 -0.128598,0.1932291 -0.264421,0.2633954 -0.50985,0.2633954 -0.203011,0 -0.408256,0.08018 -0.522024,0.2039395 -0.103101,0.112169 -0.139346,0.2039428 -0.08049,0.2039428 0.05879,0 0.164962,-0.068826 0.23588,-0.1529556 0.07089,-0.084119 0.198855,-0.1529583 0.284311,-0.1529583 0.121945,0 0.129287,0.030926 0.03417,0.1437704 -0.09615,0.1140478 -0.07259,0.1772838 0.113919,0.3058976 l 0.235115,0.1621292 -0.227305,0.2237768 c -0.257543,0.2535428 -0.442928,0.1801775 -0.221933,-0.087828 0.08514,-0.1032183 0.0064,-0.075465 -0.192391,0.067689 -0.185154,0.1334314 -0.336639,0.2989865 -0.336639,0.3678888 0,0.068909 -0.05826,0.1514479 -0.129466,0.1834314 -0.139849,0.062801 1.175456,-0.013822 1.815477,-0.1057918 z m 1.628427,-0.2832114 c 0.370286,-0.081097 0.800428,-0.1950982 0.955857,-0.2533376 L 15.585027,6.8929307 15.374624,6.4096906 C 15.15162,5.8975179 14.512512,4.8041112 14.276321,4.5306871 c -0.129198,-0.1495706 -0.200803,-0.1493433 -0.858096,0.00263 -0.394431,0.091251 -0.74465,0.192987 -0.77827,0.2260859 -0.03363,0.033106 0.03061,0.3989683 0.142637,0.8130403 0.112067,0.4140739 0.256764,1.0167628 0.321567,1.3393089 0.105539,0.5253901 0.141295,0.5813116 0.343478,0.5371096 0.124123,-0.027143 0.528636,-0.1156878 0.89892,-0.1967823 z M 18.31887,6.38285 c 0.07301,-0.1437719 0.187922,-0.2499271 0.255328,-0.2359056 0.06745,0.013989 0.122561,5.273e-4 0.122561,-0.03057 0,-0.1203728 -0.32031,-0.6577396 -0.392054,-0.6577396 -0.189934,0 -0.331795,0.4302648 -0.269112,0.8161895 0.05956,0.3664319 0.04439,0.4074456 -0.150954,0.4074456 -0.153159,0 -0.199075,0.046362 -0.15581,0.1573565 0.05413,0.1387966 0.08466,0.1365513 0.259297,-0.019015 0.108879,-0.097004 0.257715,-0.2940036 0.330744,-0.4377732 z M 16.952022,6.3679109 C 17.199888,6.2373171 17.119714,5.8747082 16.71313,5.2873221 16.386096,4.8148584 16.312047,4.5521798 16.615425,4.9407123 l 0.19274,0.2468359 0.07037,-0.3155919 C 16.95762,4.5175106 16.772656,3.7666875 16.53951,3.4957322 16.346673,3.271633 16.175171,3.2706807 15.818854,3.4918745 L 15.537677,3.666318 15.726498,3.4501232 C 15.910252,3.2397378 15.90945,3.23209 15.696708,3.165621 15.576479,3.128036 15.36349,2.918571 15.223413,2.7001013 15.08333,2.4816343 14.855233,2.2296924 14.716537,2.1402224 14.269811,1.852058 13.463124,1.5932179 13.307289,1.6880404 c -0.08018,0.04882 -0.123915,0.1054054 -0.0971,0.1257594 0.02677,0.020354 0.30514,0.2136495 0.618465,0.429546 0.313319,0.2158964 0.849323,0.6261862 1.191119,0.9117548 0.651693,0.5444756 0.796936,0.6444977 1.415129,0.9745451 0.30531,0.1629971 0.367781,0.2461732 0.32001,0.426042 -0.05858,0.2206377 -0.06224,0.219932 -0.285052,-0.055139 C 16.345748,4.3472998 16.169027,4.2110543 16.077156,4.1977793 15.985285,4.1844978 15.816767,4.0904655 15.702658,3.9888074 15.501864,3.8099086 15.476747,3.8115019 14.920876,4.0383287 c -0.315885,0.1288942 -0.574333,0.2702455 -0.574333,0.3141186 0,0.043858 0.174777,0.3476544 0.388405,0.6750756 0.213626,0.3274185 0.523526,0.8762413 0.688667,1.2196036 L 15.72387,6.8714249 16.241459,6.6705737 C 16.526132,6.5601141 16.845877,6.4239788 16.952005,6.3680606 Z M 16.069055,4.6173975 c -0.10617,-0.3900456 -0.06652,-0.4429912 0.144765,-0.1933191 0.111733,0.1320287 0.177343,0.2811593 0.145808,0.3314015 -0.09989,0.1591256 -0.225975,0.099212 -0.290573,-0.1380824 z M 4.8870902,6.5169598 C 4.9849306,6.3699542 5.0747587,6.0372779 5.0867103,5.7776821 5.098612,5.5180814 5.159247,5.0303685 5.2213392,4.6938694 5.2834304,4.3573686 5.3345026,4.0610263 5.3348306,4.0353282 5.3357077,3.9465758 4.3781955,4.8997143 3.8736562,5.4894234 3.5952637,5.8148153 3.3674878,6.1236676 3.3674878,6.1757652 c 0,0.1188 0.9216943,0.5973293 1.1628438,0.6037302 0.098378,0.00266 0.2589184,-0.1155277 0.3567586,-0.2625356 z M 9.257898,6.6253531 C 9.1439916,6.5132162 9.0090448,6.488071 8.799281,6.5398967 c -0.2651617,0.065513 -0.2752833,0.081885 -0.093849,0.151725 0.1118559,0.043068 0.3182375,0.081512 0.458619,0.085451 0.2311184,0.00661 0.2399902,-0.00779 0.093846,-0.1517252 z M 4.6760012,4.4356378 5.2325548,3.871506 4.9234414,3.6917389 C 4.6770581,3.5484528 4.5697392,3.5354635 4.3946191,3.6277164 4.2737838,3.6913881 4.074813,3.717625 3.952462,3.6860336 3.7775055,3.640847 3.5696537,3.7853245 2.9790761,4.3626107 2.5660633,4.76632 2.228149,5.149294 2.228149,5.2136556 c 0,0.064352 0.2101376,0.3077259 0.4669739,0.5407921 L 3.1621018,6.1782159 3.6407739,5.5889893 C 3.9040457,5.2649162 4.3698975,4.7459022 4.6760012,4.4356261 Z M 9.9963598,5.4016342 V 4.846823 H 9.374901 c -0.6117812,0 -0.8200405,0.1281412 -0.4143031,0.2549234 0.1139342,0.03563 0.2071533,0.1025472 0.2071533,0.1487733 0,0.046227 0.1165229,0.1128329 0.2589385,0.1480237 0.1828881,0.045193 0.2589385,0.1332917 0.2589385,0.2999696 0,0.1297909 0.029808,0.2653268 0.066234,0.3011947 0.1518414,0.1494864 0.2444903,-0.077147 0.2444924,-0.5980735 z M 17.53134,5.4326172 C 17.48776,5.3039426 16.952039,5.102918 16.86943,5.1842421 c -0.02943,0.029015 0.02473,0.170564 0.120628,0.3145435 0.144058,0.2164455 0.209364,0.243271 0.377087,0.1548978 0.111576,-0.058794 0.185466,-0.1582678 0.164195,-0.2210662 z M 18.133226,5.264487 C 18.006119,5.0620093 17.86815,5.1478971 17.86815,5.4295043 c 0,0.2550176 0.01313,0.2638034 0.167615,0.1117548 0.09221,-0.09076 0.136054,-0.2153064 0.09746,-0.2767721 z M 10.170692,5.235591 c -0.03306,-0.081339 -0.05761,-0.057169 -0.06256,0.061616 -0.0047,0.107493 0.01999,0.1677201 0.05439,0.133835 0.03444,-0.033866 0.03811,-0.1218333 0.0084,-0.1954424 z M 3.8335774,3.4506168 C 4.4272572,2.9776323 5.4587704,2.343167 6.3716575,1.8894892 6.7175588,1.7175905 6.9727279,1.5326055 6.9387078,1.4784092 6.8098974,1.2732211 6.4877423,1.3964457 5.8634291,1.8897227 5.2270515,2.3925277 4.8605099,2.5652504 5.1414942,2.2299189 5.2716731,2.0745603 5.2618373,2.0716602 5.024708,2.1955202 4.5184733,2.4599224 4.213297,2.7329374 4.2677674,2.8726893 4.306205,2.9712856 4.270228,2.9938582 4.1481072,2.9477366 4.0226141,2.9003471 3.7927506,3.0649704 3.3311424,3.5329052 2.9778566,3.8910321 2.5778906,4.344648 2.442329,4.5409394 2.2240569,4.8570043 2.2599133,4.8386549 2.7557778,4.3805267 3.0637338,4.0960123 3.5487433,3.6775531 3.8335774,3.4506254 Z m 6.2663586,0.4724805 c 0,-0.521885 -0.03782,-0.7987796 -0.103573,-0.7587555 -0.05696,0.034656 -0.1035734,0.1719371 -0.1035734,0.305056 0,0.1618017 -0.077241,0.2657666 -0.233051,0.313633 C 9.5315652,3.8224067 9.4033899,3.8831202 9.374904,3.9179459 9.3464222,3.9527486 9.1474613,4.1101731 8.9327648,4.2677405 8.7180755,4.4253037 8.5693444,4.5971183 8.6022576,4.6495465 c 0.032914,0.052434 0.383356,0.09532 0.778757,0.09532 H 10.099936 Z M 9.5142221,4.1796367 c -0.033755,-0.086542 -0.035403,-0.1829108 -0.00364,-0.2141464 0.090704,-0.089295 0.278629,0.062153 0.278629,0.2245648 0,0.1956645 -0.1975781,0.1881807 -0.274988,-0.010388 z m 2.8201299,0.4388606 c 0.076,-0.074833 -0.170575,-0.6027785 -0.402919,-0.8626463 -0.110272,-0.1233305 -0.17275,-0.2954066 -0.138846,-0.3823813 0.03843,-0.098637 0.0049,-0.158145 -0.09044,-0.158145 -0.08368,0 -0.152118,-0.068491 -0.152118,-0.15218 0,-0.3206786 -0.434668,-0.6635766 -0.841174,-0.6635766 -0.507798,0 -0.612132,0.180067 -0.263083,0.4540771 0.151608,0.1190096 0.275657,0.2694143 0.275657,0.3342391 0,0.06482 0.08439,0.177806 0.187595,0.2510896 0.279193,0.1983018 0.408643,0.43959 0.191909,0.3577096 -0.225532,-0.085206 -0.220586,0.022927 0.0093,0.1944158 0.169963,0.1270285 0.168355,0.1357658 -0.02591,0.140269 -0.153463,0.00357 -0.171348,0.027166 -0.06899,0.09102 0.109362,0.068256 0.100612,0.1004003 -0.04201,0.1542748 -0.113269,0.042777 -0.263706,-0.00916 -0.404852,-0.1396985 -0.123675,-0.1142595 -0.256256,-0.176737 -0.294755,-0.1388366 -0.132012,0.129966 -0.0699,0.2388604 0.136276,0.2388604 0.113448,0 0.264934,0.092495 0.33662,0.2055416 0.114426,0.1804345 0.216198,0.2007589 0.833138,0.1663632 0.386538,-0.021577 0.726193,-0.062238 0.754807,-0.090399 z m 1.054445,-0.1808788 c 0.299251,-0.066623 0.566617,-0.1569879 0.594139,-0.2008396 0.05365,-0.08544 -0.763738,-1.1234172 -0.884661,-1.1234172 -0.129633,0 -0.195038,0.5853367 -0.101347,0.9069639 0.111594,0.383064 0.0229,0.4523578 -0.34091,0.2665076 -0.28114,-0.143597 -0.329101,-0.099138 -0.213348,0.1978112 0.03519,0.090383 0.140099,0.144033 0.23304,0.119215 0.09295,-0.02481 0.413839,-0.099626 0.713087,-0.1662388 z M 14.827793,3.9778323 15.4185,3.7206426 15.075842,3.372593 C 14.887373,3.1811653 14.366104,2.7643406 13.917444,2.4463209 13.269837,1.9872688 13.048533,1.8812297 12.843733,1.9318333 c -0.339739,0.083948 -0.325493,0.2085488 0.05562,0.4859048 0.172442,0.1255143 0.290976,0.286093 0.263394,0.3568343 -0.02757,0.070744 0.180495,0.3938721 0.462367,0.7180625 0.28188,0.324186 0.512917,0.623843 0.513414,0.6659076 0.0015,0.1118985 0.04122,0.1014306 0.689307,-0.1807102 z M 13.90636,3.4110952 c -0.240654,-0.1379915 -0.2291,-0.2690471 0.03084,-0.3502778 0.25423,-0.079432 0.52321,0.1113918 0.443883,0.3149183 -0.06617,0.1696233 -0.22054,0.1811262 -0.474748,0.035372 z m -3.440243,0.3027109 c 0.04431,-0.1374727 0.0093,-0.2743977 -0.0966,-0.3787496 -0.152291,-0.1499297 -0.166009,-0.1321441 -0.166009,0.2153132 0,0.4127203 0.151786,0.5071867 0.262606,0.1634364 z M 5.231856,3.6232008 c 0,-0.056079 -0.072666,-0.1019663 -0.1614799,-0.1019663 -0.088808,0 -0.1326659,0.045882 -0.097463,0.1019663 0.03521,0.056084 0.1078711,0.1019695 0.1614729,0.1019695 0.053623,0 0.097468,-0.045884 0.097469,-0.1019695 z M 4.253815,3.4785841 C 4.3643081,3.3990522 4.4264283,3.3061238 4.3918622,3.2720923 4.3572975,3.2380882 4.2175425,3.3016017 4.0812991,3.4133219 3.7999056,3.6440279 3.9468054,3.6995954 4.253815,3.47859 Z M 9.5884504,3.0699544 C 9.4193305,2.8693385 9.569562,2.6035047 9.8520756,2.6035047 c 0.1363237,0 0.2478604,-0.039524 0.2478604,-0.087831 0,-0.1086612 -0.5225382,-0.023442 -0.6991393,0.1139984 -0.1646458,0.1281485 -0.1657978,0.4291793 -0.00264,0.6863908 0.1091759,0.1721009 0.1391656,0.1782679 0.2153394,0.044265 0.052958,-0.093154 0.042885,-0.2097842 -0.02504,-0.2903761 z M 9.061623,2.9423261 C 9.2906616,2.4325852 9.2255402,2.2680946 8.816253,2.3225084 8.6050361,2.3505787 8.4809425,2.8576168 8.6587997,2.9658359 8.8453318,3.0793332 8.6429559,3.2188695 8.4439336,3.1139994 8.2322479,3.0024641 7.9248371,3.0753955 7.9248371,3.2371453 c 0,0.056076 0.069861,0.075578 0.155248,0.043325 0.085388,-0.032257 0.2601713,-0.017141 0.3884109,0.03363 0.3573579,0.1414086 0.3645955,0.13687 0.593127,-0.3717488 z M 8.8570216,2.7624823 c 0,-0.087435 0.046605,-0.1589745 0.1035765,-0.1589745 0.056959,0 0.1035775,0.043199 0.1035775,0.095952 0,0.052779 -0.046612,0.1243128 -0.1035775,0.1589737 -0.056959,0.034654 -0.1035765,-0.00851 -0.1035765,-0.095951 z M 7.8033025,2.8329481 C 7.7753637,2.5169286 7.8099722,2.4330878 8.0025187,2.3499042 8.1306951,2.2945274 8.2355665,2.2142429 8.2355665,2.1714574 c 0,-0.1588748 -0.4643421,-0.070377 -0.7955999,0.1516414 -0.3485331,0.2335912 -0.4635514,0.4212489 -0.196319,0.3202905 0.1405447,-0.053093 0.4411237,0.3263688 0.3924628,0.4954671 -0.012124,0.042066 0.028167,0.076476 0.089504,0.076476 0.065813,0 0.097656,-0.1566787 0.077682,-0.3823868 z M 7.4069552,2.2036375 C 7.6632165,2.0039863 7.6637502,2.0002928 7.4587237,1.847082 7.2102308,1.6613816 7.1262109,1.6577925 6.7742485,1.8178444 6.5149656,1.9357568 6.5098039,1.9541762 6.6462429,2.2749252 6.7999753,2.6363363 6.8586032,2.6308404 7.4069357,2.2036262 Z m 1.0732172,0.1449566 c 0.032789,-0.084132 0.014461,-0.1529572 -0.040709,-0.1529572 -0.055192,0 -0.1003267,0.068824 -0.1003267,0.1529572 0,0.084123 0.0183,0.1529527 0.040719,0.1529527 0.022385,0 0.067532,-0.068824 0.1003225,-0.1529527 z M 10.586819,1.4818517 c 0.03498,-0.084123 0.05574,-0.2040689 0.04608,-0.266537 -0.03337,-0.2149669 0.514944,-0.056378 1.205041,0.3485076 0.619391,0.3634073 0.955016,0.443467 0.955016,0.227818 0,-0.070781 -1.767126,-0.92160646 -1.914121,-0.92160646 -0.03637,0 -0.03714,0.0460287 -0.0018,0.1022762 0.06883,0.10968266 -0.235047,0.091456 -0.42516,-0.025525 -0.07939,-0.0488289 -0.113638,0.15437106 -0.112268,0.66575426 0.0017,0.6274171 0.01537,0.6833609 0.0928,0.3791346 0.04999,-0.196293 0.11948,-0.4257234 0.154502,-0.5098462 z M 9.4412863,2.0623088 c 0.039472,-0.038832 0.017324,-0.070607 -0.049142,-0.070607 -0.066463,0 -0.1208414,-0.050795 -0.1208414,-0.1128803 0,-0.062074 0.063196,-0.089002 0.1404627,-0.05981 C 9.5793469,1.8823154 9.9484604,1.1899937 9.8164262,1.0600071 9.7683222,1.0126438 9.3618169,1.1799111 8.9130611,1.4316793 8.4643047,1.6834439 8.0780643,1.870662 8.0547508,1.8477091 8.0194408,1.8129241 8.6719818,1.4163391 9.6338227,0.88805074 9.7477565,0.82547674 9.7872238,0.77287864 9.7215257,0.77117234 9.5522347,0.76678234 7.4765933,1.4818837 7.372248,1.5805532 7.2292434,1.7157765 8.1821704,2.0228397 8.4584472,1.9305609 8.5922023,1.8858838 8.743972,1.8608419 8.7957198,1.8749295 8.8474688,1.8890171 9.1018523,1.7030799 9.3610211,1.4617631 L 9.8322381,1.02301 9.3964072,1.5050878 C 9.156698,1.7702328 8.9605751,2.033789 8.9605751,2.090772 c 0,0.1106894 0.3610613,0.089326 0.480686,-0.028448 z m 0.2961339,0.031362 c 0.035207,-0.056079 0.014652,-0.1019684 -0.045679,-0.1019684 -0.060321,0 -0.1096881,0.04588 -0.1096881,0.1019684 0,0.056088 0.020547,0.1019695 0.045672,0.1019695 0.025124,0 0.074469,-0.04588 0.1096873,-0.1019695 z m 3.4697948,-0.493705 c 0,-0.074687 -0.167411,-0.1380268 -1.020643,-0.3861776 -0.09376,-0.02728 0.03922,0.06569 0.295623,0.2066038 0.485039,0.2666036 0.72502,0.3260434 0.72502,0.1795738 z m 0.923557,0.048654 c -0.15993,-0.1377522 -0.509241,-0.2597356 -0.509241,-0.1778317 0,0.053946 0.08157,0.1190648 0.181253,0.1447161 0.24987,0.064286 0.379355,0.077355 0.327988,0.033109 z M 8.0284132,1.1790833 C 8.8831,0.84678494 8.7729759,0.78020474 7.7853823,1.0321448 7.0473926,1.2204109 6.9682582,1.258533 7.0488622,1.3869326 7.1333532,1.5215194 7.1648261,1.514839 8.0284132,1.1790833 Z m 2.1507658,-0.061987 0.02746,-0.29804346 -0.153258,0.25492256 c -0.1898055,0.315716 -0.1997039,0.4375151 -0.03113,0.3830214 0.07121,-0.023033 0.141829,-0.1759743 0.156934,-0.3399005 z m 3.235194,0.2739574 c 0,-0.091713 -1.493316,-0.52644346 -1.767852,-0.51464836 -0.08157,0.00369 0.271176,0.13592626 0.783884,0.29427186 0.51269,0.1583447 0.943828,0.293136 0.958071,0.2995392 0.01427,0.00649 0.02594,-0.029247 0.02594,-0.079164 z"
     style="stroke-width:0.842992;fill:#ffffff" /></svg>
