<?xml version="1.0" encoding="UTF-8" standalone="no"?>
<!-- Created with Inkscape (http://www.inkscape.org/) -->

<svg
   width="20"
   height="20"
   viewBox="0 0 5.2916665 5.2916666"
   version="1.1"
   id="svg5"
   xml:space="preserve"
   xmlns="http://www.w3.org/2000/svg"
   xmlns:svg="http://www.w3.org/2000/svg"><defs
     id="defs2" /><g
     id="layer1"><path
       style="fill:#2b2b2b;stroke-width:0.0324578"
       d="m -3.0149273,2.4501301 c 10e-4,-0.058687 0.00596,-0.070624 0.012634,-0.030436 0.00604,0.036366 0.0053,0.079816 -0.00165,0.096556 -0.00695,0.01674 -0.011892,-0.013014 -0.010984,-0.06612 z"
       id="path308" /><path
       style="fill:#ffffff;stroke-width:0.023231"
       d="M 1.4173676,3.0924421 C 0.30533648,1.9796768 0.19198808,1.8593171 0.19198808,1.791265 c 0,-0.097747 0.070485,-0.1679127 0.1686749,-0.1679127 0.059112,0 0.1190682,0.035171 0.2729644,0.1601242 0.2356728,0.1913505 1.27286262,1.0440163 1.48653522,1.2220693 0.083051,0.069206 0.2338221,0.1941786 0.3350469,0.2777166 l 0.1840452,0.1518872 0.063583,-0.052158 C 2.7378077,3.3543036 2.8685567,3.2472007 2.9933899,3.1449842 3.118223,3.0427677 3.2733662,2.9155644 3.3381527,2.8623103 3.4029387,2.8090563 3.5302137,2.7045164 3.620985,2.6300001 3.711756,2.5554841 3.8935731,2.4056569 4.0250224,2.2970519 4.1564716,2.1884469 4.3086908,2.0629994 4.3632869,2.0182797 4.4178829,1.9735597 4.5377402,1.8742473 4.6296357,1.797585 4.8429735,1.6196113 4.8834139,1.5966634 4.954347,1.6133279 c 0.09272,0.021783 0.1393861,0.078691 0.1393861,0.1699783 0,0.078714 -0.06412,0.1472136 -1.2254929,1.3091921 L 2.6427472,4.318631 Z"
       id="path335" /></g></svg>
