<svg width="82" height="82" viewBox="0 0 82 82" fill="none" xmlns="http://www.w3.org/2000/svg">
<path d="M70.0713 14.2877H64.1852C63.8772 14.2877 63.6376 14.5274 63.6376 14.8356C63.6376 15.1438 63.8772 15.3836 64.1852 15.3836H70.6531C70.961 15.3836 71.2006 15.1438 71.2006 14.8356V8.36301C71.2006 8.0548 70.961 7.81507 70.6531 7.81507C70.3451 7.81507 70.1055 8.0548 70.1055 8.36301V14.2534L70.0713 14.2877ZM11.9287 67.7123H17.8148C18.1228 67.7123 18.3624 67.4726 18.3624 67.1644C18.3624 66.8562 18.1228 66.6164 17.8148 66.6164H11.347C11.039 66.6164 10.7994 66.8562 10.7994 67.1644V73.637C10.7994 73.9452 11.039 74.1849 11.347 74.1849C11.6549 74.1849 11.8945 73.9452 11.8945 73.637V67.7466L11.9287 67.7123ZM68.9077 12.3356C66.8887 10.3493 64.63 8.56849 62.2003 7.0274C61.7212 6.71918 61.2079 6.41096 60.6946 6.17123C54.5689 2.67808 47.793 1 41.0513 1C30.6822 1 20.4157 5.00685 12.7158 12.7123C6.89814 18.5342 3.06532 25.863 1.62801 33.9452C0.224921 41.8219 1.18313 49.8356 4.39996 57.1301C4.53685 57.4041 4.87906 57.5411 5.15284 57.4041C5.42661 57.2671 5.5635 56.9589 5.42661 56.6849C-1.0755 41.8904 2.10711 24.9384 13.5029 13.5C25.8569 1.17123 45.021 -1.43151 60.147 7.16438C60.5919 7.40411 61.071 7.67808 61.5501 7.9863C63.9456 9.49315 66.1016 11.2055 68.0864 13.1233H68.8735V12.3356H68.9077ZM13.0923 69.6301C15.1456 71.6164 17.4042 73.4315 19.7997 74.9384C20.3472 75.2808 20.8606 75.589 21.3055 75.8288C27.26 79.2192 34.0359 81 40.9487 81C51.6943 81 61.7554 76.8562 69.2842 69.2877C75.1019 63.4658 78.9347 56.137 80.372 48.0548C81.7751 40.1781 80.8169 32.1301 77.6 24.8356C77.5316 24.6986 77.4289 24.5959 77.292 24.5274C77.1552 24.4932 77.0183 24.4932 76.8814 24.5274C76.6076 24.6644 76.4707 24.9726 76.6076 25.2466C83.0413 39.8014 79.7902 57.1644 68.5313 68.4315C61.2079 75.7603 51.4205 79.8014 40.9829 79.8014C34.2755 79.8014 27.7049 78.0548 21.9214 74.8014C21.5108 74.5617 20.9975 74.2534 20.4841 73.9452C18.1571 72.4726 15.9669 70.7603 13.982 68.8425H13.1607V69.5959L13.0923 69.6301ZM57.1355 51.3082H61.8581C61.8581 51.3082 61.995 51.2397 61.995 51.1712C61.995 51.1027 61.9265 51.0342 61.8581 51.0342H57.3066V49.9041C57.3066 49.0822 57.9568 48.4315 58.7781 48.4315H60.3866C61.2763 48.4315 61.995 47.7123 61.995 46.7877V46.137C61.995 45.6918 61.8239 45.2808 61.5159 44.9726C61.2079 44.6644 60.7972 44.4932 60.3523 44.4932H58.7439C57.7515 44.4932 56.9644 45.2808 56.9644 46.274C56.9644 46.4452 57.2724 46.4452 57.2724 46.274C57.2724 45.4521 57.9226 44.8014 58.7439 44.8014H60.3523C60.6946 44.8014 61.0368 44.9384 61.2763 45.1781C61.5159 45.4178 61.6528 45.7603 61.6528 46.137V46.7877C61.6528 47.5069 61.071 48.1233 60.3181 48.1233H58.7097C57.7515 48.1233 56.9302 48.911 56.9302 49.9041V51.1712L57.0671 51.8904V51.3082H57.1355ZM32.0168 49.2877C34.0701 49.2877 36.055 48.5342 37.5949 47.1644C37.8345 46.9589 37.8345 46.6164 37.6292 46.3767C37.4238 46.137 37.0816 46.137 36.8421 46.3425C35.5074 47.5411 33.7963 48.1918 31.9826 48.1918C27.9787 48.1918 24.6934 44.9384 24.6934 40.8973C24.6934 36.8562 27.9444 33.6027 31.9826 33.6027C33.7621 33.6027 35.5074 34.2534 36.8421 35.4521C36.9447 35.5548 37.0816 35.589 37.2527 35.589C37.3896 35.589 37.5265 35.5205 37.6292 35.4178C37.8345 35.1781 37.8003 34.8356 37.5949 34.6301C36.055 33.2603 34.0701 32.5069 32.0168 32.5069C27.3969 32.5069 23.6325 36.274 23.6325 40.8973C23.6325 45.5206 27.3969 49.2877 32.0168 49.2877ZM47.8614 33.6027C51.8654 33.6027 55.1507 36.8562 55.1507 40.8973C55.1507 44.9384 51.8996 48.1918 47.8614 48.1918C43.8233 48.1918 40.5722 44.9384 40.5722 40.8973C40.5722 36.8562 43.8233 33.6027 47.8614 33.6027ZM39.4771 40.8973C39.4771 45.5206 43.2415 49.2877 47.8614 49.2877C52.4814 49.2877 56.2457 45.5206 56.2457 40.8973C56.2457 36.274 52.4814 32.5069 47.8614 32.5069C43.2415 32.5069 39.4771 36.274 39.4771 40.8973ZM17.678 37.1644C17.8833 37.0616 18.0202 36.8562 17.986 36.6507V36.2397C17.986 29.2877 23.6325 23.637 30.5795 23.637C32.5986 23.637 34.515 24.1164 36.2945 25.0069C36.5341 25.1438 36.8421 25.0753 36.979 24.8356C39.8194 21.1027 44.1313 18.9452 48.8196 18.9452C56.8275 18.9452 63.3296 25.2123 63.6718 33.1918C63.6718 33.3973 63.7745 33.5685 63.9456 33.6712C67.8469 35.8973 70.2424 40.1096 70.2766 44.5616C70.2766 47.8836 68.9762 51.0343 66.5807 53.4315C64.1509 55.863 60.9341 57.1986 57.5462 57.1986H22.2637C16.446 57.1986 11.7234 52.4726 11.7234 46.6507C11.7234 42.6096 14.0505 38.8767 17.678 37.1301V37.1644ZM10.5941 46.6849C10.5941 53.1233 15.83 58.363 22.2637 58.363H57.5804C61.2763 58.363 64.7669 56.8904 67.402 54.2534C70.0028 51.6507 71.4401 48.226 71.4401 44.5959C71.4401 39.9726 69.0104 35.5205 65.0749 33.0548L64.8354 32.8836V32.5753C64.1509 24.1849 57.3066 17.8493 48.8881 17.8493C44.1997 17.8493 39.7509 19.9041 36.7394 23.4658L36.4656 23.8082L36.055 23.637C34.3439 22.8836 32.5301 22.5069 30.6137 22.5069C23.1876 22.5069 17.0277 28.5342 16.8909 35.9658V36.3082L16.5829 36.4795C12.8869 38.5342 10.5941 42.4384 10.5941 46.6849Z" stroke="white" stroke-width="1.4" stroke-miterlimit="10"/>
</svg>
