<svg width="84" height="76" viewBox="0 0 84 76" fill="none" xmlns="http://www.w3.org/2000/svg">
<path d="M67.7904 73.9645V43.9348M67.7904 42.9042L58.2345 43.0819M79.6199 25.6328L67.8259 42.9042L80.6856 59.465M17.8792 74V52.0375M2.42629 73.9645H82M2 51.3978L17.8792 51.2557L26.476 38.6397M17.8437 51.2557L27.2575 63.3386M37.9503 24.6732L7.54174 24.922L4.94849 28.5469L25.9432 31.5321L34.1847 28.2981M41.254 30.2172L57.7726 6.05133L55.9964 2L41.7869 16.9615L40.1172 25.2419M34.9663 30.4304L52.9769 53.6367L57.595 53.4946L47.8615 35.6189L40.2593 31.1767M41.0581 38.2796L42.6394 73.9645M33.3321 73.9645L34.9307 30.4304M68.8916 33.2024H56.7424C54.9662 32.9891 53.7229 31.2478 53.7229 29.4709C53.7229 27.3386 55.5346 25.5972 57.8082 25.5972C58.1989 25.5972 58.5542 25.6683 58.9094 25.7749C59.1936 23.8914 60.8632 22.4344 62.9236 22.4344C64.984 22.4344 66.6536 23.8559 66.9378 25.7394C67.2576 25.6683 67.5773 25.6328 67.897 25.6328C70.135 25.6328 71.9822 27.3741 71.9822 29.5064M41.7869 28.2626C41.7869 30.2527 40.0817 31.8519 37.9858 31.8519C35.8899 31.8519 34.1847 30.2527 34.1847 28.2626C34.1847 26.2725 35.8899 24.6732 37.9858 24.6732C40.0817 24.6732 41.7869 26.2725 41.7869 28.2626ZM20.8277 19.0582H9.38899C7.61279 18.845 6.36945 17.1037 6.36945 15.3268C6.36945 13.1945 8.18117 11.4531 10.4547 11.4531C10.8455 11.4531 11.2007 11.5242 11.556 11.6308C11.8401 9.74729 13.5098 8.29023 15.5702 8.29023C17.6305 8.29023 19.3002 9.71175 19.5844 11.5953C19.9041 11.5242 20.2238 11.4886 20.5435 11.4886C22.7815 11.4886 24.6288 13.23 24.6288 15.3623C24.6288 17.1747 23.3499 18.845 21.5382 19.0938H20.8277V19.0582Z" stroke="white" stroke-width="2.2" stroke-miterlimit="10" stroke-linecap="round" stroke-linejoin="round"/>
</svg>
