<svg width="92" height="66" viewBox="0 0 92 66" fill="none" xmlns="http://www.w3.org/2000/svg">
<path d="M77.6221 30.6107C77.6078 30.0033 77.1039 29.5226 76.4965 29.5369C75.8892 29.5512 75.4084 30.0551 75.4227 30.6625L77.6221 30.6107ZM75.4911 33.5663C75.5054 34.1736 76.0094 34.6544 76.6167 34.6401C77.2241 34.6258 77.7048 34.1218 77.6905 33.5145L75.4911 33.5663ZM71.8769 36.5455C71.8769 35.938 71.3844 35.4455 70.7769 35.4455C70.1694 35.4455 69.6769 35.938 69.6769 36.5455H71.8769ZM69.6769 39.4494C69.6769 40.0569 70.1694 40.5494 70.7769 40.5494C71.3844 40.5494 71.8769 40.0569 71.8769 39.4494H69.6769ZM74.9546 45.2312C74.9403 44.6238 74.4363 44.1431 73.829 44.1574C73.2216 44.1717 72.7409 44.6756 72.7552 45.283L74.9546 45.2312ZM72.8236 48.1868C72.8379 48.7941 73.3418 49.2749 73.9492 49.2606C74.5565 49.2463 75.0373 48.7423 75.023 48.135L72.8236 48.1868ZM14.7981 40.4623C14.7981 39.8548 14.3057 39.3623 13.6981 39.3623C13.0906 39.3623 12.5981 39.8548 12.5981 40.4623H14.7981ZM12.5981 43.4C12.5981 44.0075 13.0906 44.5 13.6981 44.5C14.3057 44.5 14.7981 44.0075 14.7981 43.4H12.5981ZM80.7346 39.3481C80.7346 38.7406 80.2421 38.2481 79.6346 38.2481C79.027 38.2481 78.5346 38.7406 78.5346 39.3481H80.7346ZM78.5346 42.2857C78.5346 42.8932 79.027 43.3857 79.6346 43.3857C80.2421 43.3857 80.7346 42.8932 80.7346 42.2857H78.5346ZM20.783 46.2363C20.783 45.6287 20.2905 45.1363 19.683 45.1363C19.0755 45.1363 18.583 45.6287 18.583 46.2363H20.783ZM18.583 49.1401C18.583 49.7476 19.0755 50.2401 19.683 50.2401C20.2905 50.2401 20.783 49.7476 20.783 49.1401H18.583ZM29.2987 31.4469C29.2987 30.8394 28.8062 30.3469 28.1987 30.3469C27.5912 30.3469 27.0987 30.8394 27.0987 31.4469H29.2987ZM27.0987 34.3508C27.0987 34.9583 27.5912 35.4508 28.1987 35.4508C28.8062 35.4508 29.2987 34.9583 29.2987 34.3508H27.0987ZM23.5529 37.3303C23.5387 36.723 23.0349 36.2421 22.4276 36.2562C21.8202 36.2704 21.3393 36.7742 21.3535 37.3815L23.5529 37.3303ZM21.4219 40.3191C21.436 40.9265 21.9398 41.4074 22.5472 41.3932C23.1545 41.3791 23.6354 40.8753 23.6213 40.2679L21.4219 40.3191ZM65.9262 30.8054C65.9262 30.1979 65.4337 29.7054 64.8262 29.7054C64.2187 29.7054 63.7262 30.1979 63.7262 30.8054H65.9262ZM63.7262 33.7092C63.7262 34.3167 64.2187 34.8092 64.8262 34.8092C65.4337 34.8092 65.9262 34.3167 65.9262 33.7092H63.7262ZM60.1804 36.7222C60.1661 36.1149 59.6622 35.6341 59.0548 35.6484C58.4475 35.6627 57.9667 36.1667 57.981 36.774L60.1804 36.7222ZM58.0494 39.6779C58.0637 40.2852 58.5677 40.766 59.175 40.7517C59.7824 40.7374 60.2631 40.2334 60.2488 39.6261L58.0494 39.6779ZM66.1656 42.4883C66.1656 41.8808 65.6731 41.3883 65.0656 41.3883C64.4581 41.3883 63.9656 41.8808 63.9656 42.4883H66.1656ZM63.9656 45.3921C63.9656 45.9996 64.4581 46.4921 65.0656 46.4921C65.6731 46.4921 66.1656 45.9996 66.1656 45.3921H63.9656ZM54.4694 42.6571C54.4694 42.0496 53.9769 41.5571 53.3694 41.5571C52.7619 41.5571 52.2694 42.0496 52.2694 42.6571H54.4694ZM52.2694 45.561C52.2694 46.1685 52.7619 46.6609 53.3694 46.6609C53.9769 46.6609 54.4694 46.1685 54.4694 45.561H52.2694ZM41.063 31.1509C41.0487 30.5436 40.5447 30.0628 39.9374 30.0771C39.33 30.0914 38.8493 30.5954 38.8636 31.2027L41.063 31.1509ZM38.932 34.1066C38.9463 34.7139 39.4502 35.1947 40.0576 35.1803C40.6649 35.166 41.1457 34.6621 41.1314 34.0548L38.932 34.1066ZM49.9209 33.9456C49.9209 33.3381 49.4284 32.8456 48.8209 32.8456C48.2134 32.8456 47.7209 33.3381 47.7209 33.9456H49.9209ZM47.7209 36.8494C47.7209 37.4569 48.2134 37.9494 48.8209 37.9494C49.4284 37.9494 49.9209 37.4569 49.9209 36.8494H47.7209ZM44.1754 39.8546C44.1754 39.2471 43.6829 38.7546 43.0754 38.7546C42.4679 38.7546 41.9754 39.2471 41.9754 39.8546H44.1754ZM41.9754 42.7922C41.9754 43.3997 42.4679 43.8922 43.0754 43.8922C43.6829 43.8922 44.1754 43.3997 44.1754 42.7922H41.9754ZM35.352 37.0858C35.352 36.4783 34.8595 35.9858 34.252 35.9858C33.6445 35.9858 33.152 36.4783 33.152 37.0858H35.352ZM33.152 39.9896C33.152 40.5971 33.6445 41.0896 34.252 41.0896C34.8595 41.0896 35.352 40.5971 35.352 39.9896H33.152ZM29.6065 42.9948C29.6065 42.3873 29.114 41.8948 28.5065 41.8948C27.899 41.8948 27.4065 42.3873 27.4065 42.9948H29.6065ZM27.4065 45.8986C27.4065 46.5061 27.899 46.9986 28.5065 46.9986C29.114 46.9986 29.6065 46.5061 29.6065 45.8986H27.4065ZM24.1919 25.5243C24.203 26.1317 24.7044 26.6151 25.3118 26.604C25.9193 26.5929 26.4027 26.0915 26.3916 25.4841L24.1919 25.5243ZM41.1092 8.8096C41.7166 8.80004 42.2013 8.29987 42.1917 7.69243C42.1822 7.08499 41.682 6.60032 41.0745 6.60987L41.1092 8.8096ZM70.264 55.8403C69.6567 55.8562 69.1773 56.3614 69.1932 56.9687C69.2091 57.576 69.7143 58.0555 70.3216 58.0396L70.264 55.8403ZM74.1627 56.8387L74.1418 55.7388L74.1339 55.739L74.1627 56.8387ZM89.997 40.4961L88.8971 40.5142L88.8972 40.5174L89.997 40.4961ZM76.5566 26.112V27.212H76.5665L76.5764 27.2118L76.5566 26.112ZM75.086 26.112H73.986V27.212H75.086V26.112ZM75.086 24.6601H76.186V24.65L76.1859 24.64L75.086 24.6601ZM63.1505 13.1798V14.2798H63.1612L63.1719 14.2796L63.1505 13.1798ZM60.8249 13.1798L59.8929 13.7641L60.2163 14.2798H60.8249V13.1798ZM60.3803 12.4707L59.4377 13.0377L59.4429 13.0464L59.4483 13.055L60.3803 12.4707ZM40.8525 2.00335L40.8344 0.903502L40.8341 0.903509L40.8525 2.00335ZM19.2726 24.2886H20.3726V24.2793L20.3725 24.27L19.2726 24.2886ZM19.2726 25.7406V26.8406H20.3726V25.7406H19.2726ZM17.8363 25.7406V24.6406H17.8258L17.8154 24.6408L17.8363 25.7406ZM2.00195 42.0831L0.902072 42.1L0.902155 42.1044L2.00195 42.0831ZM18.4177 57.8854L18.4344 58.9853L18.4455 58.985L18.4177 57.8854ZM23.7859 58.85C24.3932 58.8346 24.8731 58.3298 24.8578 57.7225C24.8424 57.1152 24.3376 56.6353 23.7303 56.6507L23.7859 58.85ZM42.0567 63.092C42.5198 62.6988 42.5765 62.0046 42.1832 61.5415C41.79 61.0784 41.0959 61.0218 40.6328 61.415L42.0567 63.092ZM40.6328 52.6132C41.0959 53.0064 41.79 52.9497 42.1832 52.4866C42.5765 52.0235 42.5198 51.3294 42.0567 50.9361L40.6328 52.6132ZM46.7186 50.0282C46.7186 49.4207 46.2261 48.9282 45.6185 48.9282C45.011 48.9282 44.5186 49.4207 44.5186 50.0282H46.7186ZM44.5186 64C44.5186 64.6075 45.011 65.1 45.6185 65.1C46.2261 65.1 46.7186 64.6075 46.7186 64H44.5186ZM56.6121 50.0282C56.6121 49.4207 56.1197 48.9282 55.5121 48.9282C54.9046 48.9282 54.4121 49.4207 54.4121 50.0282H56.6121ZM54.4121 64C54.4121 64.6075 54.9046 65.1 55.5121 65.1C56.1197 65.1 56.6121 64.6075 56.6121 64H54.4121ZM62.8841 63.7817C62.8841 64.3892 63.3766 64.8817 63.9841 64.8817C64.5916 64.8817 65.0841 64.3892 65.0841 63.7817H62.8841ZM63.9841 54.9401H65.0841C65.0841 54.4849 64.8037 54.0767 64.3787 53.9134C63.9538 53.75 63.4721 53.8654 63.1672 54.2035L63.9841 54.9401ZM59.1113 61.5986H58.0113C58.0113 62.2061 58.5037 62.6986 59.1113 62.6986V61.5986ZM66.2398 62.6986C66.8473 62.6986 67.3398 62.2061 67.3398 61.5986C67.3398 60.9911 66.8473 60.4986 66.2398 60.4986V62.6986ZM59.1113 60.3433L58.2944 59.6066C58.1121 59.8087 58.0113 60.0712 58.0113 60.3433H59.1113ZM75.4227 30.6625L75.4911 33.5663L77.6905 33.5145L77.6221 30.6107L75.4227 30.6625ZM69.6769 36.5455V39.4494H71.8769V36.5455H69.6769ZM72.7552 45.283L72.8236 48.1868L75.023 48.135L74.9546 45.2312L72.7552 45.283ZM12.5981 40.4623V43.4H14.7981V40.4623H12.5981ZM78.5346 39.3481V42.2857H80.7346V39.3481H78.5346ZM18.583 46.2363V49.1401H20.783V46.2363H18.583ZM27.0987 31.4469V34.3508H29.2987V31.4469H27.0987ZM21.3535 37.3815L21.4219 40.3191L23.6213 40.2679L23.5529 37.3303L21.3535 37.3815ZM63.7262 30.8054V33.7092H65.9262V30.8054H63.7262ZM57.981 36.774L58.0494 39.6779L60.2488 39.6261L60.1804 36.7222L57.981 36.774ZM63.9656 42.4883V45.3921H66.1656V42.4883H63.9656ZM52.2694 42.6571V45.561H54.4694V42.6571H52.2694ZM38.8636 31.2027L38.932 34.1066L41.1314 34.0548L41.063 31.1509L38.8636 31.2027ZM47.7209 33.9456V36.8494H49.9209V33.9456H47.7209ZM41.9754 39.8546V42.7922H44.1754V39.8546H41.9754ZM33.152 37.0858V39.9896H35.352V37.0858H33.152ZM27.4065 42.9948V45.8986H29.6065V42.9948H27.4065ZM26.3916 25.4841C26.2301 16.6504 33.2191 8.93374 41.1092 8.8096L41.0745 6.60987C31.7965 6.75586 24.0114 15.6518 24.1919 25.5243L26.3916 25.4841ZM70.3216 58.0396L74.1915 57.9383L74.1339 55.739L70.264 55.8403L70.3216 58.0396ZM74.1835 57.9385C83.6753 57.7582 91.2797 49.9366 91.0968 40.4749L88.8972 40.5174C89.0563 48.7488 82.4337 55.5814 74.1418 55.7388L74.1835 57.9385ZM91.0968 40.4781C90.9518 31.6382 84.7718 24.8643 76.5369 25.0122L76.5764 27.2118C83.3892 27.0895 88.7685 32.6738 88.8971 40.5142L91.0968 40.4781ZM76.5566 25.012H75.086V27.212H76.5566V25.012ZM76.186 26.112V24.6601H73.986V26.112H76.186ZM76.1859 24.64C76.1313 21.6397 75.2583 18.4545 73.1567 16.0228C71.0258 13.5571 67.7376 11.99 63.129 12.08L63.1719 14.2796C67.2158 14.2006 69.8441 15.5543 71.4922 17.4613C73.1696 19.4022 73.9382 22.0416 73.9862 24.6801L76.1859 24.64ZM63.1505 12.0798H60.8249V14.2798H63.1505V12.0798ZM61.7569 12.5954L61.3123 11.8863L59.4483 13.055L59.8929 13.7641L61.7569 12.5954ZM61.3229 11.9037C57.1081 4.8969 49.4465 0.762377 40.8344 0.903503L40.8705 3.10321C48.7425 2.97421 55.6499 6.74083 59.4377 13.0377L61.3229 11.9037ZM40.8341 0.903509C28.1215 1.11624 17.9573 11.6101 18.1728 24.3073L20.3725 24.27C20.1776 12.791 29.3702 3.29565 40.8709 3.1032L40.8341 0.903509ZM18.1726 24.2886V25.7406H20.3726V24.2886H18.1726ZM19.2726 24.6406H17.8363V26.8406H19.2726V24.6406ZM17.8154 24.6408C8.32115 24.821 0.755895 32.6103 0.90208 42.1L3.10182 42.0662C2.97441 33.7952 9.5677 26.9977 17.8571 26.8404L17.8154 24.6408ZM0.902155 42.1044C1.08492 51.5597 8.93997 59.1295 18.4344 58.9853L18.401 56.7855C10.1117 56.9114 3.26097 50.2997 3.10174 42.0618L0.902155 42.1044ZM18.4455 58.985L23.7859 58.85L23.7303 56.6507L18.3898 56.7857L18.4455 58.985ZM36.5415 62.9C33.0979 62.9 30.3798 60.225 30.3798 57.0141H28.1798C28.1798 61.5196 31.964 65.1 36.5415 65.1V62.9ZM30.3798 57.0141C30.3798 53.8031 33.0979 51.1282 36.5415 51.1282V48.9282C31.964 48.9282 28.1798 52.5086 28.1798 57.0141H30.3798ZM40.6328 61.415C39.5475 62.3365 38.1172 62.9 36.5415 62.9V65.1C38.649 65.1 40.5817 64.3444 42.0567 63.092L40.6328 61.415ZM36.5415 51.1282C38.1172 51.1282 39.5475 51.6917 40.6328 52.6132L42.0567 50.9361C40.5817 49.6837 38.649 48.9282 36.5415 48.9282V51.1282ZM44.5186 50.0282V57.0141H46.7186V50.0282H44.5186ZM44.5186 57.0141V64H46.7186V57.0141H44.5186ZM54.4121 50.0282V57.0141H56.6121V50.0282H54.4121ZM54.4121 57.0141V64H56.6121V57.0141H54.4121ZM45.6185 58.1141H55.5121V55.9141H45.6185V58.1141ZM65.0841 63.7817V61.5986H62.8841V63.7817H65.0841ZM65.0841 61.5986V54.9401H62.8841V61.5986H65.0841ZM59.1113 62.6986H63.9841V60.4986H59.1113V62.6986ZM63.9841 62.6986H66.2398V60.4986H63.9841V62.6986ZM63.1672 54.2035L58.2944 59.6066L59.9281 61.08L64.801 55.6768L63.1672 54.2035ZM58.0113 60.3433V61.5986H60.2113V60.3433H58.0113Z" fill="white"/>
</svg>
