<svg xmlns="http://www.w3.org/2000/svg" xmlns:xlink="http://www.w3.org/1999/xlink" width="76" height="76" viewBox="0 0 76 76">
  <defs>
    <clipPath id="clip-path">
      <rect id="Rectangle_5275" data-name="Rectangle 5275" width="76" height="76" transform="translate(987 2693)" fill="#fff" stroke="#707070" stroke-width="1"/>
    </clipPath>
  </defs>
  <g id="Mask_Group_71" data-name="Mask Group 71" transform="translate(-987 -2693)" clip-path="url(#clip-path)">
    <g id="Group_9080" data-name="Group 9080" transform="translate(776.861 2673.884)">
      <g id="Group_9077" data-name="Group 9077" transform="translate(223.691 23.143)">
        <path id="Path_3701" data-name="Path 3701" d="M243.743,40.922a4.705,4.705,0,1,0-4.706-4.706A4.711,4.711,0,0,0,243.743,40.922Zm0-7.266a2.561,2.561,0,1,1-2.561,2.56A2.563,2.563,0,0,1,243.743,33.656Z" transform="translate(-230.808 -27.024)" fill="#a18c00"/>
        <path id="Path_3702" data-name="Path 3702" d="M259.947,44.522a12.58,12.58,0,0,0-7.4,2.388l-5.418-3.924a12.635,12.635,0,1,0-1.376,1.652l5.13,3.716c-.288.3-.566.607-.827.935a1.073,1.073,0,0,0,1.679,1.336,10.489,10.489,0,1,1,15.585,13.982c-.043-.912-.093-1.98-.137-2.991a3.146,3.146,0,0,0-1.075-2.353,4.13,4.13,0,0,0-2.891-.816h-2.908a4.706,4.706,0,1,0-.723,0h-3.878a2.871,2.871,0,0,0-2.089.85,5.117,5.117,0,0,0-1.173,3.327v1.737a11.112,11.112,0,0,1-2.391-4.042,1.072,1.072,0,0,0-2.033.683,13.413,13.413,0,0,0,2.173,4.03l-5.57,3.888a12.628,12.628,0,1,0,1.511,1.56l5.537-3.865a12.3,12.3,0,0,0,8.289,3.168,12.632,12.632,0,1,0-.015-25.263ZM226.3,35.767A10.479,10.479,0,1,1,244.25,43.1c-.04-.854-.085-1.822-.125-2.741a3.148,3.148,0,0,0-1.075-2.353,4.128,4.128,0,0,0-2.891-.815h-7.492a2.874,2.874,0,0,0-2.09.85,5.111,5.111,0,0,0-1.172,3.327V43.2A10.445,10.445,0,0,1,226.3,35.767Zm5.248,9.066V41.361a3.083,3.083,0,0,1,.551-1.808.728.728,0,0,1,.566-.214h7.545l.12-.007a2.073,2.073,0,0,1,1.335.316,1.01,1.01,0,0,1,.316.809c.068,1.544.148,3.228.2,4.274a10.384,10.384,0,0,1-10.631.1Zm25.835,8.929a2.561,2.561,0,1,1,2.561,2.561A2.564,2.564,0,0,1,257.386,53.762Zm-26.27,33.781v-3.62a3.069,3.069,0,0,1,.554-1.814.728.728,0,0,1,.563-.212h7.561l.119-.007a2.055,2.055,0,0,1,1.336.316,1.012,1.012,0,0,1,.315.808c.071,1.607.154,3.361.2,4.394a10.4,10.4,0,0,1-10.653.135Zm12.722-1.774c-.042-.879-.088-1.89-.131-2.849a3.145,3.145,0,0,0-1.075-2.352,4.12,4.12,0,0,0-2.891-.815h-7.508a2.872,2.872,0,0,0-2.089.85,5.111,5.111,0,0,0-1.173,3.327v1.988a10.5,10.5,0,1,1,14.867-.149Zm10.754-19.637v-3.51a3.066,3.066,0,0,1,.555-1.815.72.72,0,0,1,.562-.212h7.562l.12-.006a2.066,2.066,0,0,1,1.335.316,1.008,1.008,0,0,1,.315.808c.073,1.653.159,3.461.209,4.481a10.391,10.391,0,0,1-5.286,1.448A10.2,10.2,0,0,1,254.591,66.131Z" transform="translate(-223.691 -23.143)" fill="#a18c00"/>
        <path id="Path_3703" data-name="Path 3703" d="M243.193,110.96a4.705,4.705,0,1,0,4.706,4.706A4.711,4.711,0,0,0,243.193,110.96Zm0,7.266a2.561,2.561,0,1,1,2.561-2.561A2.564,2.564,0,0,1,243.193,118.226Z" transform="translate(-230.553 -63.869)" fill="#a18c00"/>
      </g>
      <path id="Path_3704" data-name="Path 3704" d="M266.56,76.007a3.689,3.689,0,1,0,3.689,3.689A3.688,3.688,0,0,0,266.56,76.007Z" transform="translate(-18.17 -24.516)" fill="#764197"/>
    </g>
  </g>
</svg>
