<svg xmlns="http://www.w3.org/2000/svg" xmlns:xlink="http://www.w3.org/1999/xlink" width="76" height="76" viewBox="0 0 76 76">
  <defs>
    <clipPath id="clip-path">
      <rect id="Rectangle_5278" data-name="Rectangle 5278" width="76" height="76" transform="translate(699 2693)" fill="#fff" stroke="#707070" stroke-width="1"/>
    </clipPath>
  </defs>
  <g id="Mask_Group_69" data-name="Mask Group 69" transform="translate(-699 -2693)" clip-path="url(#clip-path)">
    <g id="Group_9089" data-name="Group 9089" transform="translate(913.717 2661.509)">
      <path id="Path_3710" data-name="Path 3710" d="M-176.01,73.446a11.457,11.457,0,0,1-3.5-.551l-26.664-8.544a2.981,2.981,0,0,1-2.1-2.884,2.978,2.978,0,0,1,2.1-2.881l26.664-8.543a11.4,11.4,0,0,1,7.008,0l26.665,8.543a2.978,2.978,0,0,1,2.1,2.881,2.981,2.981,0,0,1-2.1,2.884L-172.506,72.9A11.448,11.448,0,0,1-176.01,73.446Zm-2.769-21.111-26.664,8.543a.593.593,0,0,0-.43.59.594.594,0,0,0,.43.591l26.664,8.544a9.062,9.062,0,0,0,5.54,0l26.665-8.544a.594.594,0,0,0,.43-.591.593.593,0,0,0-.43-.59l-26.665-8.543a9.071,9.071,0,0,0-5.54,0Z" transform="translate(-0.177)" fill="#a18c00"/>
      <path id="Path_3711" data-name="Path 3711" d="M-146.389,99.446a1.2,1.2,0,0,1-1.2-1.112,1.2,1.2,0,0,1,1.108-1.292c9.339-.718,13.378-3.032,13.378-4.053V77.146a1.2,1.2,0,0,1,1.2-1.2,1.2,1.2,0,0,1,1.2,1.2V92.988c0,4.878-11.942,6.173-15.6,6.454Q-146.343,99.446-146.389,99.446Z" transform="translate(-24.689 -10.683)" fill="#a18c00"/>
      <path id="Path_3712" data-name="Path 3712" d="M-173.814,99.47l-.086,0q-1.2-.085-2.343-.212c-4.086-.445-13.6-1.946-13.6-6.267V77.149a1.2,1.2,0,0,1,1.2-1.2,1.2,1.2,0,0,1,1.2,1.2v15.84c0,.916,3.359,2.992,11.453,3.874q1.1.12,2.25.2a1.205,1.205,0,0,1,1.115,1.286A1.2,1.2,0,0,1-173.814,99.47Z" transform="translate(-7.624 -10.685)" fill="#a18c00"/>
      <path id="Path_3713" data-name="Path 3713" d="M-203.547,100.064H-206.4a2.326,2.326,0,0,1-2.322-2.323V93.187l3.747-6.734,3.746,6.734v4.554A2.326,2.326,0,0,1-203.547,100.064Zm-2.763-6.252v3.929l2.677-.083V93.812l-1.338-2.405Zm2.763,3.844h0Z" transform="translate(0 -14.929)" fill="#a18c00"/>
      <path id="Path_3714" data-name="Path 3714" d="M-203.248,83.9a1.2,1.2,0,0,1-1.2-1.2V72.223a1.2,1.2,0,0,1,1.2-1.2,1.2,1.2,0,0,1,1.2,1.2V82.7A1.2,1.2,0,0,1-203.248,83.9Z" transform="translate(-1.723 -8.695)" fill="#a18c00"/>
      <path id="Path_3715" data-name="Path 3715" d="M-153.43,111.617a2.618,2.618,0,0,1-2.619,2.617,2.618,2.618,0,0,1-2.619-2.617A2.619,2.619,0,0,1-156.05,109a2.619,2.619,0,0,1,2.619,2.619" transform="translate(-20.215 -24.035)" fill="#764197"/>
    </g>
  </g>
</svg>
