<svg xmlns="http://www.w3.org/2000/svg" xmlns:xlink="http://www.w3.org/1999/xlink" width="76" height="76" viewBox="0 0 76 76">
  <defs>
    <clipPath id="clip-path">
      <rect id="Rectangle_5277" data-name="Rectangle 5277" width="76" height="76" transform="translate(699 2583)" fill="#fff" stroke="#707070" stroke-width="1"/>
    </clipPath>
  </defs>
  <g id="Mask_Group_68" data-name="Mask Group 68" transform="translate(-699 -2583)" clip-path="url(#clip-path)">
    <g id="Group_9081" data-name="Group 9081" transform="translate(676.678 2564.401)">
      <circle id="Ellipse_85" data-name="Ellipse 85" cx="2.117" cy="2.117" r="2.117" transform="translate(73.494 32.053)" fill="#754396"/>
      <g id="Group_9082" data-name="Group 9082" transform="translate(33.323 23.599)">
        <g id="Group_9081-2" data-name="Group 9081">
          <path id="Path_3705" data-name="Path 3705" d="M87.119,80.318l-6.849-8.806A9.914,9.914,0,0,0,85.688,67.5c1.613-2.789.884-6.191.178-9.478a25.858,25.858,0,0,1-.762-5.156,25.9,25.9,0,0,1,.762-5.16c.7-3.289,1.435-6.69-.178-9.474a9.221,9.221,0,0,0-4.652-3.7,1.148,1.148,0,0,0-1.595,1.046v.033a1.023,1.023,0,0,0,.625.957,7.211,7.211,0,0,1,3.676,2.791c1.177,2.036.57,4.874-.076,7.88a27.587,27.587,0,0,0-.813,5.628,27.585,27.585,0,0,0,.811,5.629c.645,3,1.253,5.842.076,7.88-1.239,2.132-4.045,3.024-7.02,3.968A26.114,26.114,0,0,0,71.6,72.368a24.815,24.815,0,0,0-4.152,3.34c-2.317,2.148-4.5,4.174-7.105,4.174s-4.787-2.026-7.1-4.174a24.819,24.819,0,0,0-4.152-3.34,26.117,26.117,0,0,0-5.125-2.026c-2.976-.944-5.786-1.836-7.02-3.968-1.178-2.037-.57-4.875.075-7.88a27.588,27.588,0,0,0,.813-5.629,27.587,27.587,0,0,0-.811-5.628c-.645-3-1.253-5.842-.076-7.88,1.239-2.132,4.045-3.024,7.02-3.968a26.1,26.1,0,0,0,5.124-2.026,24.815,24.815,0,0,0,4.151-3.34c2.318-2.147,4.5-4.174,7.105-4.174s4.788,2.026,7.1,4.174a32.108,32.108,0,0,0,3.031,2.482,1.054,1.054,0,0,0,1.695-.789V31.7a1.065,1.065,0,0,0-.442-.989,22.577,22.577,0,0,1-2.755-2.338c-2.414-2.24-5.15-4.776-8.633-4.776s-6.219,2.536-8.634,4.775a22.824,22.824,0,0,1-3.748,3.04,24.1,24.1,0,0,1-4.678,1.828c-3.253,1.031-6.617,2.1-8.287,4.985-1.613,2.789-.884,6.191-.178,9.478a25.9,25.9,0,0,1,.761,5.16,25.86,25.86,0,0,1-.762,5.16c-.7,3.289-1.435,6.69.178,9.473a9.912,9.912,0,0,0,5.424,4.011L33.56,80.317a1.126,1.126,0,0,0,1.029,1.808l8.048-1.005,1.987,6.952a1.126,1.126,0,0,0,.868.8,1.156,1.156,0,0,0,.214.02,1.126,1.126,0,0,0,.889-.435l7.189-9.246a10.412,10.412,0,0,0,6.556,2.927A10.41,10.41,0,0,0,66.9,79.207l7.189,9.243a1.126,1.126,0,0,0,.889.438,1.156,1.156,0,0,0,.214-.02,1.126,1.126,0,0,0,.868-.8l1.987-6.951,8.011,1a1.152,1.152,0,0,0,1.092-.452A1.131,1.131,0,0,0,87.119,80.318Zm-40.94,5-1.643-5.747a1.125,1.125,0,0,0-1.221-.807l-6.3.788,5.65-7.263.623.2a24.113,24.113,0,0,1,4.674,1.828,22.883,22.883,0,0,1,3.749,3.04l.387.358Zm31.191-6.554a1.125,1.125,0,0,0-1.221.807L74.5,85.32l-5.914-7.6.387-.358a22.886,22.886,0,0,1,3.749-3.041A24.083,24.083,0,0,1,77.4,72.49l.623-.2,5.651,7.263Z" transform="translate(-33.323 -23.599)" fill="#00a391"/>
        </g>
      </g>
      <g id="Group_9085" data-name="Group 9085" transform="translate(43.213 35.942)">
        <g id="Group_9084" data-name="Group 9084">
          <g id="Group_9083" data-name="Group 9083">
            <path id="Path_3706" data-name="Path 3706" d="M67.825,45.424A16.914,16.914,0,1,0,84.739,62.338,16.913,16.913,0,0,0,67.825,45.424Zm0,31.948A15.034,15.034,0,1,1,82.86,62.338,15.034,15.034,0,0,1,67.825,77.372Z" transform="translate(-50.622 -45.135)" fill="#00a391"/>
            <path id="Path_3707" data-name="Path 3707" d="M67.614,79.33a17.2,17.2,0,1,1,0-34.406h0a17.2,17.2,0,1,1,0,34.406Zm0-33.827A16.624,16.624,0,1,0,84.239,62.127,16.643,16.643,0,0,0,67.614,45.5Zm0,31.948h0A15.324,15.324,0,1,1,82.938,62.127,15.341,15.341,0,0,1,67.614,77.451Zm0-30.069A14.745,14.745,0,1,0,82.36,62.126,14.762,14.762,0,0,0,67.614,47.382Z" transform="translate(-50.411 -44.924)" fill="#00a391"/>
          </g>
        </g>
      </g>
      <g id="Group_9088" data-name="Group 9088" transform="translate(50.933 44.032)">
        <g id="Group_9087" data-name="Group 9087">
          <g id="Group_9086" data-name="Group 9086">
            <path id="Path_3708" data-name="Path 3708" d="M82.157,67.685a1.328,1.328,0,0,0-.736-2.265l-4.406-.64a.264.264,0,0,1-.2-.145l-1.971-3.992a1.328,1.328,0,0,0-2.381,0l-1.97,3.992a.265.265,0,0,1-.2.145l-4.406.64a1.328,1.328,0,0,0-.736,2.265l3.188,3.108a.268.268,0,0,1,.076.236l-.752,4.388a1.327,1.327,0,0,0,1.926,1.4l3.941-2.071a.266.266,0,0,1,.247,0l3.94,2.071a1.328,1.328,0,0,0,1.927-1.4l-.753-4.388a.268.268,0,0,1,.076-.236Zm-4.311,3.523L78.6,75.6a.266.266,0,0,1-.385.28L74.272,73.8a1.33,1.33,0,0,0-1.236,0L69.1,75.876a.266.266,0,0,1-.385-.28l.752-4.388a1.327,1.327,0,0,0-.382-1.176l-3.188-3.108a.265.265,0,0,1,.148-.453l4.405-.64a1.329,1.329,0,0,0,1-.727l1.97-3.992a.266.266,0,0,1,.476,0h0l1.97,3.992a1.328,1.328,0,0,0,1,.726l4.406.64a.265.265,0,0,1,.147.453l-3.188,3.108A1.329,1.329,0,0,0,77.845,71.208Z" transform="translate(-64.17 -59.324)" fill="#00a391"/>
            <path id="Path_3709" data-name="Path 3709" d="M68.548,77.128A1.91,1.91,0,0,1,66.671,74.9l.725-4.226-3.07-2.993a1.906,1.906,0,0,1,1.058-3.252l4.242-.616,1.9-3.845a1.906,1.906,0,0,1,3.419,0l1.9,3.845,4.243.616a1.907,1.907,0,0,1,1.057,3.252l-3.07,2.993.725,4.226a1.9,1.9,0,0,1-.759,1.865,1.925,1.925,0,0,1-2.008.145l-3.795-2-3.795,2A1.906,1.906,0,0,1,68.548,77.128Zm4.684-4.476a1.912,1.912,0,0,1,.887.219L77.5,74.646l-.645-3.762A1.906,1.906,0,0,1,77.4,69.2l2.733-2.664-3.778-.549a1.906,1.906,0,0,1-1.435-1.043l-1.689-3.423L71.543,64.94a1.905,1.905,0,0,1-1.436,1.043l-3.777.549L69.063,69.2a1.9,1.9,0,0,1,.548,1.688l-.645,3.762,3.379-1.776A1.912,1.912,0,0,1,73.232,72.651Zm-.281-11.7h0Zm.562,0h0Z" transform="translate(-63.748 -58.902)" fill="#00a391"/>
          </g>
        </g>
      </g>
    </g>
  </g>
</svg>
