<svg xmlns="http://www.w3.org/2000/svg" xmlns:xlink="http://www.w3.org/1999/xlink" width="76" height="76" viewBox="0 0 76 76">
  <defs>
    <clipPath id="clip-path">
      <rect id="Rectangle_5279" data-name="Rectangle 5279" width="76" height="76" transform="translate(987 2508)" fill="#fff" stroke="#707070" stroke-width="1"/>
    </clipPath>
  </defs>
  <g id="Mask_Group_70" data-name="Mask Group 70" transform="translate(-987 -2508)" clip-path="url(#clip-path)">
    <g id="Group_9092" data-name="Group 9092" transform="translate(976.264 2667.632)">
      <g id="Group_9090" data-name="Group 9090" transform="translate(21.478 -113.638)">
        <path id="Path_3716" data-name="Path 3716" d="M33.685-83.257a2.638,2.638,0,0,1-2.638,2.638,2.639,2.639,0,0,1-2.638-2.638,2.638,2.638,0,0,1,2.638-2.638,2.638,2.638,0,0,1,2.638,2.638" transform="translate(-28.408 85.895)" fill="#FFA500"/>
      </g>
      <g id="Group_9091" data-name="Group 9091" transform="translate(13.736 -144.632)">
        <path id="Path_3717" data-name="Path 3717" d="M53.656-98.917A1.055,1.055,0,0,1,52.6-99.973v-21.221a1.055,1.055,0,0,1,1.055-1.055,1.056,1.056,0,0,1,1.055,1.055v21.221A1.056,1.056,0,0,1,53.656-98.917Zm-9.863,0a1.056,1.056,0,0,1-1.055-1.055v-21.221a1.056,1.056,0,0,1,1.055-1.055,1.055,1.055,0,0,1,1.055,1.055v21.221A1.055,1.055,0,0,1,43.794-98.917ZM73.4-101.1a1.056,1.056,0,0,1-1.055-1.055v-17.627a1.056,1.056,0,0,1,.805-1.025,21.927,21.927,0,0,0,7.189-3.4,5.443,5.443,0,0,0,1.082-1.166,1.161,1.161,0,0,0-.115-1.549,1.147,1.147,0,0,0-1.53-.146c-2.635,1.771-4.634,2.632-6.111,2.632H63.324a3.211,3.211,0,0,0-1.786.533,1.055,1.055,0,0,1-.337.15c.017.193.025.39.025.592v7.446a4.525,4.525,0,0,1-.269,1.521,1.054,1.054,0,0,1,.825.318,2.157,2.157,0,0,0,1.508.7,1.055,1.055,0,0,1,.968.633v-7.3a1.055,1.055,0,0,1,1.055-1.055,1.055,1.055,0,0,1,1.055,1.055v17.69a1.055,1.055,0,0,1-1.055,1.055,1.056,1.056,0,0,1-1.055-1.055V-111.7a1.056,1.056,0,0,1-.968.634,4.275,4.275,0,0,1-3.022-1.337,1.052,1.052,0,0,1-.183-.255,5.085,5.085,0,0,1-3.859,1.933,1.055,1.055,0,0,1-1.055-1.055,1.055,1.055,0,0,1,1.055-1.055,3.124,3.124,0,0,0,2.889-2.877v-7.446a3.707,3.707,0,0,0-3.875-3.86H42.315a3.775,3.775,0,0,0-3.642,2.416,4.315,4.315,0,0,0-.233,1.445v7.446a2.935,2.935,0,0,0,.876,1.949,2.866,2.866,0,0,0,2.013.928,1.055,1.055,0,0,1,1.055,1.055,1.055,1.055,0,0,1-1.055,1.055A4.98,4.98,0,0,1,37.8-112.3q-.168-.173-.318-.358a4.279,4.279,0,0,1-3.25,1.588,1.057,1.057,0,0,1-.968-.634v9.547a1.055,1.055,0,0,1-1.055,1.055,1.056,1.056,0,0,1-1.055-1.055v-17.69a1.055,1.055,0,0,1,1.055-1.055,1.055,1.055,0,0,1,1.055,1.055v7.3a1.056,1.056,0,0,1,.968-.634,2.222,2.222,0,0,0,1.661-.866,1.052,1.052,0,0,1,.639-.371,4.415,4.415,0,0,1-.2-1.3v-7.446a7,7,0,0,1,.035-.7.987.987,0,0,1-.545-.144,3.267,3.267,0,0,0-1.622-.428H23.852c-1.476,0-3.476-.861-6.111-2.632a1.147,1.147,0,0,0-1.528.145,1.161,1.161,0,0,0-.117,1.549,5.49,5.49,0,0,0,1.081,1.167,21.948,21.948,0,0,0,7.191,3.4,1.057,1.057,0,0,1,.8,1.025v3.877a1.055,1.055,0,0,1-1.055,1.055,1.055,1.055,0,0,1-1.055-1.055v-3.077a23.154,23.154,0,0,1-7.186-3.564,7.55,7.55,0,0,1-1.507-1.615,3.247,3.247,0,0,1,.336-4.24,3.234,3.234,0,0,1,4.213-.419c2.943,1.978,4.355,2.273,4.934,2.273H34.2a5.326,5.326,0,0,1,2.686.717l.011.006a5.869,5.869,0,0,1,5.421-3.308H55.241a5.977,5.977,0,0,1,5.409,3.3,5.378,5.378,0,0,1,2.674-.711H73.669c.58,0,1.991-.295,4.935-2.273a3.233,3.233,0,0,1,4.214.421,3.246,3.246,0,0,1,.335,4.239,7.526,7.526,0,0,1-1.508,1.616,23.14,23.14,0,0,1-7.185,3.564v16.826A1.055,1.055,0,0,1,73.4-101.1Zm-49.288,0a1.056,1.056,0,0,1-1.055-1.055v-4.084a1.056,1.056,0,0,1,1.055-1.055,1.055,1.055,0,0,1,1.055,1.055v4.084A1.055,1.055,0,0,1,24.117-101.1Zm45.242-27.988a4.147,4.147,0,0,1-4.292-4.283v-1.612a4.147,4.147,0,0,1,4.292-4.283,4.147,4.147,0,0,1,4.292,4.283v1.612A4.146,4.146,0,0,1,69.359-129.087Zm0-8.067a2.04,2.04,0,0,0-2.181,2.172v1.612a2.04,2.04,0,0,0,2.181,2.172,2.039,2.039,0,0,0,2.181-2.172v-1.612A2.04,2.04,0,0,0,69.359-137.154Zm-41.2,8.067a4.146,4.146,0,0,1-4.292-4.283v-1.612a4.147,4.147,0,0,1,4.292-4.283,4.147,4.147,0,0,1,4.291,4.283v1.612A4.146,4.146,0,0,1,28.162-129.087Zm0-8.067a2.04,2.04,0,0,0-2.181,2.172v1.612a2.039,2.039,0,0,0,2.181,2.172,2.039,2.039,0,0,0,2.18-2.172v-1.612A2.039,2.039,0,0,0,28.162-137.154Zm20.564,4.464a4.83,4.83,0,0,1-5-4.989v-1.965a4.831,4.831,0,0,1,5-4.989,4.831,4.831,0,0,1,5,4.989v1.965A4.831,4.831,0,0,1,48.725-132.69Zm0-9.832a2.73,2.73,0,0,0-2.889,2.878v1.965a2.73,2.73,0,0,0,2.889,2.878,2.73,2.73,0,0,0,2.89-2.878v-1.965A2.73,2.73,0,0,0,48.725-142.521Z" transform="translate(-13.736 144.632)" fill="#a18c00"/>
      </g>
    </g>
  </g>
</svg>
