<svg width="24" height="23" viewBox="0 0 24 23" fill="none" xmlns="http://www.w3.org/2000/svg">
<g clip-path="url(#clip0_1_8577)">
<mask id="mask0_1_8577" style="mask-type:luminance" maskUnits="userSpaceOnUse" x="3" y="6" width="15" height="12">
<path d="M11.9227 6.66028C11.7675 6.67781 11.6209 6.73981 11.501 6.83863C11.381 6.93745 11.293 7.06878 11.2477 7.21641C11.1948 7.36885 11.1896 7.53354 11.233 7.68892C11.2763 7.8443 11.3662 7.98314 11.4907 8.08727C12.4267 8.98627 13.362 9.88675 14.2965 10.7887C14.358 10.8487 14.415 10.9109 14.5148 11.0109H14.1225C9.54375 11.0109 9.60075 11.0146 5.022 11.0049C4.7956 10.9759 4.56585 11.0224 4.36932 11.1371C4.1728 11.2519 4.02079 11.4282 3.9375 11.6381V12.0298C4.02136 12.2386 4.17309 12.4139 4.36886 12.5283C4.56462 12.6426 4.79332 12.6895 5.019 12.6615C9.61425 12.6511 9.5745 12.6556 14.169 12.6556H14.5245L12.831 14.2847C12.3697 14.7291 11.9055 15.1734 11.448 15.6177C11.3303 15.7238 11.2485 15.863 11.2138 16.0166C11.179 16.1701 11.193 16.3305 11.2537 16.476C11.3048 16.6225 11.3982 16.751 11.5224 16.8456C11.6467 16.9402 11.7963 16.9968 11.9528 17.0084C12.096 17.0221 12.2405 17.0018 12.3742 16.9493C12.5079 16.8967 12.627 16.8134 12.7215 16.7063C14.196 15.2859 15.6725 13.8671 17.151 12.4497C17.2415 12.3729 17.3141 12.2776 17.3638 12.1705C17.4134 12.0633 17.4389 11.9467 17.4384 11.8289C17.438 11.711 17.4117 11.5946 17.3613 11.4878C17.3109 11.381 17.2376 11.2862 17.1465 11.2101C16.9545 11.0264 16.7595 10.845 16.5668 10.6599C15.2833 9.42565 14.0003 8.19144 12.7178 6.95723C12.6346 6.86482 12.5334 6.78992 12.4203 6.73699C12.3071 6.68406 12.1843 6.65419 12.0593 6.64917C12.0135 6.64931 11.9679 6.65302 11.9227 6.66028Z" fill="white"/>
</mask>
<g mask="url(#mask0_1_8577)">
<path d="M18.2843 5.86792H3.1875V17.7896H18.2843V5.86792Z" fill="#00A499"/>
</g>
<mask id="mask1_1_8577" style="mask-type:luminance" maskUnits="userSpaceOnUse" x="1" y="0" width="23" height="23">
<path d="M11.6011 0.0273994C9.85077 0.117274 8.14557 0.607504 6.62001 1.45941C5.09444 2.31132 3.79024 3.5016 2.8103 4.93635C2.30003 5.6522 1.88112 6.42746 1.56305 7.24457C1.50456 7.37387 1.48295 7.51649 1.50054 7.65704C1.51813 7.79758 1.57427 7.93072 1.66288 8.04207C1.7515 8.15342 1.86923 8.23876 2.00337 8.28888C2.13752 8.33901 2.28297 8.352 2.42405 8.32648C2.79905 8.26353 2.9663 7.99472 3.09905 7.67555C3.85381 5.88362 5.12481 4.34993 6.75437 3.26475C8.38392 2.17958 10.3003 1.5907 12.2658 1.57116C14.2312 1.55162 16.1592 2.10229 17.8106 3.15485C19.4619 4.20741 20.7639 5.71553 21.5551 7.49209C22.3462 9.26866 22.5917 11.2355 22.261 13.1485C21.9303 15.0616 21.038 16.8367 19.6948 18.2535C18.3516 19.6704 16.6167 20.6667 14.7052 21.1189C12.7938 21.571 10.7899 21.4591 8.9423 20.7969C7.60825 20.3327 6.39145 19.5895 5.37508 18.6182C4.35871 17.6469 3.56674 16.4703 3.0533 15.1689C3.0222 15.0632 2.96897 14.9652 2.89706 14.8811C2.82516 14.797 2.73618 14.7287 2.63587 14.6807C2.53557 14.6327 2.42617 14.606 2.31477 14.6024C2.20336 14.5988 2.09242 14.6182 1.98912 14.6596C1.88583 14.701 1.79247 14.7633 1.7151 14.8425C1.63772 14.9217 1.57805 15.0161 1.53994 15.1195C1.50183 15.223 1.48613 15.3331 1.49386 15.4429C1.50159 15.5527 1.53257 15.6597 1.5848 15.7569C2.44961 17.8876 3.93886 19.715 5.86184 21.005C7.78482 22.2949 10.054 22.9888 12.3788 22.9978C13.0381 22.9237 13.7041 22.8897 14.3566 22.7756C17.0478 22.3121 19.4884 20.9291 21.2513 18.8684C23.0142 16.8078 23.9872 14.2007 24.0001 11.5033V11.4456C23.9923 8.41185 22.7681 5.5046 20.5952 3.35971C18.4223 1.21482 15.4776 0.00684298 12.4051 0C12.1391 0 11.8711 0.00913311 11.6011 0.0273994Z" fill="white"/>
</mask>
<g mask="url(#mask1_1_8577)">
<path d="M24.75 -0.696838H0.75V23.7405H24.75V-0.696838Z" fill="#00A499"/>
</g>
<mask id="mask2_1_8577" style="mask-type:luminance" maskUnits="userSpaceOnUse" x="0" y="10" width="3" height="4">
<path d="M0 11.8454C0 12.1384 0.0879735 12.4247 0.252796 12.6683C0.417618 12.9118 0.651886 13.1016 0.925975 13.2137C1.20006 13.3258 1.50166 13.3552 1.79264 13.298C2.08361 13.2409 2.35088 13.0998 2.56066 12.8927C2.77044 12.6856 2.9133 12.4217 2.97118 12.1344C3.02906 11.8471 2.99935 11.5493 2.88582 11.2787C2.77229 11.008 2.58003 10.7767 2.33336 10.614C2.08668 10.4512 1.79667 10.3644 1.5 10.3644C1.10218 10.3644 0.720644 10.5204 0.43934 10.7982C0.158035 11.0759 0 11.4526 0 11.8454Z" fill="white"/>
</mask>
<g mask="url(#mask2_1_8577)">
<path d="M3.75 9.67053H-0.75V14.1137H3.75V9.67053Z" fill="#d35d1dff"/>
</g>
</g>
<defs>
<clipPath id="clip0_1_8577">
<rect width="24" height="23" fill="white"/>
</clipPath>
</defs>
</svg>
