<?xml version="1.0" encoding="UTF-8" standalone="no"?>
<svg
   id="Group_5514"
   data-name="Group 5514"
   width="19.923"
   height="20"
   viewBox="0 0 19.923 20"
   version="1.1"
   xml:space="preserve"
   xmlns="http://www.w3.org/2000/svg"
   xmlns:svg="http://www.w3.org/2000/svg"><defs
     id="defs11725"><clipPath
       id="clip-path"><rect
         id="Rectangle_3250"
         data-name="Rectangle 3250"
         width="19.923"
         height="20"
         fill="#fff" /></clipPath></defs><path
     id="path1"
     d="m 8.7524689,19.692987 c -4.234088,-0.583824 -7.55118,-3.588359 -8.48620502,-7.686585 -0.271287,-1.189041 -0.221891,-3.1460987 0.110963,-4.3964567 C 1.3384369,3.99921 4.2188079,1.2730642 7.9378309,0.4541748 c 0.978992,-0.2155671 3.0843911,-0.2155671 4.0633791,0 3.71874,0.8188272 6.596846,3.5425614 7.561346,7.1557705 0.390361,1.4623823 0.390361,3.3301847 0,4.7925717 -1.113545,4.171561 -4.789138,7.117586 -9.145411,7.330108 -0.5595091,0.02727 -1.3086161,0.0096 -1.6646761,-0.03966 z m 1.4628061,-0.738925 c -0.03707,-0.23835 -0.07846,-0.446814 -0.09199,-0.463243 -0.04219,-0.05126 -2.3685541,-0.219973 -2.4141781,-0.175061 -0.07777,0.07657 0.629792,0.883805 0.852288,0.972371 0.119349,0.04751 0.555468,0.0893 0.969147,0.09284 l 0.7521491,0.0067 z m 0.375706,-0.0733 c 0,-0.408464 -0.03013,-0.495276 -0.155364,-0.447951 -0.162251,0.0613 -0.196263,0.3351 -0.09008,0.725166 0.109233,0.401257 0.245455,0.247405 0.245456,-0.277215 z m 1.045063,0.404682 c 0.218275,0 0.348351,-0.203874 0.455444,-0.713792 0.05887,-0.280412 0.04775,-0.331279 -0.05218,-0.237399 -0.06995,0.06573 -0.185782,0.09732 -0.25749,0.07018 -0.07173,-0.02709 -0.23299,0.114188 -0.358386,0.313961 -0.125415,0.199757 -0.329064,0.437089 -0.452567,0.527398 -0.219037,0.160168 -0.215976,0.162671 0.125023,0.101893 0.192252,-0.0343 0.435315,-0.06231 0.540123,-0.06231 z M 7.8065249,18.69951 c -0.415248,-0.48482 -0.445691,-0.499818 -1.369492,-0.674153 -0.519642,-0.09807 -0.960327,-0.163026 -0.979306,-0.144342 -0.01899,0.01867 0.12829,0.203838 0.327255,0.411466 0.334421,0.348973 0.892076,0.579586 2.268379,0.938083 0.214694,0.05593 0.165789,-0.04928 -0.246836,-0.531054 z m 5.0263201,0.268259 c 1.111657,-0.337724 2.634354,-1.150043 2.690192,-1.435132 0.01441,-0.07352 0.121578,-0.451808 0.23819,-0.840725 0.116612,-0.388907 0.191224,-0.727574 0.165814,-0.752602 -0.07593,-0.07467 -1.432965,0.28782 -1.68847,0.451052 -0.130093,0.08312 -0.223578,0.20659 -0.207762,0.274409 0.01585,0.06783 -0.191908,0.323562 -0.46161,0.568314 -0.379509,0.344398 -0.549367,0.433915 -0.751233,0.395923 -0.213331,-0.04017 -0.239127,-0.02331 -0.141611,0.09234 0.130862,0.155232 0.129336,0.15815 -0.169223,0.322321 -0.315094,0.173258 -0.06156,0.144508 1.268434,-0.143832 1.562256,-0.338701 1.846106,-0.381201 1.269184,-0.190027 -0.256352,0.08494 -0.971712,0.253651 -1.589708,0.374891 -1.180035,0.231521 -1.146791,0.210198 -1.355358,0.869339 -0.08798,0.278021 -0.133988,0.277157 0.733161,0.01369 z M 5.3937769,18.045911 c -0.207331,-0.264684 -0.892923,-0.596234 -1.224524,-0.592176 -0.02849,6.31e-4 0.270456,0.206139 0.664312,0.457319 0.393849,0.25117 0.737742,0.456673 0.7642,0.456673 0.02646,0 -0.06532,-0.144819 -0.203988,-0.321816 z m 4.6428601,-0.315486 c -0.03594,-0.294434 -0.06573,-0.654971 -0.0662,-0.801186 -8.78e-4,-0.264564 -0.0061,-0.266173 -1.062553,-0.335669 -0.583913,-0.03843 -1.308293,-0.0974 -1.60974,-0.131094 l -0.548091,-0.06123 0.218717,0.549884 c 0.387244,0.973555 0.533544,1.155085 0.98623,1.223698 0.225004,0.0341 0.800123,0.06849 1.278031,0.07646 l 0.8689301,0.01449 z m 0.847678,-0.152955 c 0.125146,-0.37857 0.226874,-0.745657 0.226044,-0.815765 -8.83e-4,-0.08474 -0.174925,-0.127455 -0.519378,-0.127455 -0.584459,0 -0.563067,-0.04765 -0.451344,1.004735 0.05896,0.555551 0.09214,0.626771 0.291845,0.626771 0.186613,0 0.264354,-0.118153 0.452833,-0.688286 z m -3.7472531,0 c -0.1356,-0.266393 -0.303129,-0.656429 -0.372292,-0.866746 -0.09408,-0.286075 -0.182423,-0.382563 -0.350767,-0.383101 -0.202606,-6.14e-4 -1.687977,-0.322488 -2.183909,-0.473197 -0.169076,-0.05138 -0.147907,0.02745 0.144507,0.538256 0.652925,1.14052 0.753566,1.22681 1.692361,1.451133 0.465882,0.111328 0.952718,0.205912 1.081852,0.210202 l 0.234792,0.0083 z m -2.442698,-0.458865 c -0.163073,-0.238354 -0.402324,-0.648283 -0.53167,-0.910948 -0.163683,-0.332389 -0.316501,-0.497403 -0.502715,-0.542797 -0.147152,-0.03588 -0.634107,-0.245395 -1.082133,-0.465581 l -0.814583,-0.400364 0.18093,0.280358 c 0.781838,1.211464 1.599701,2.004191 2.331419,2.259786 0.763775,0.266782 0.755194,0.271302 0.418752,-0.220454 z M 16.947296,16.411081 c 0.604411,-0.649093 1.129019,-1.376194 0.933547,-1.293857 -0.05025,0.02116 -0.472101,0.195112 -0.937494,0.386576 l -0.846174,0.348103 -0.160886,0.630546 c -0.0885,0.346801 -0.193208,0.713475 -0.232711,0.814842 -0.134106,0.344048 0.556147,-0.147796 1.243718,-0.88621 z M 9.8928769,15.691028 c -0.03136,-0.462689 -0.09028,-0.854374 -0.130879,-0.870422 -0.04062,-0.01605 -0.162006,-0.09353 -0.269777,-0.172229 -0.160238,-0.116992 -0.174082,-0.178385 -0.07598,-0.336848 0.06599,-0.106576 0.08929,-0.240095 0.05176,-0.296703 -0.0375,-0.0566 -0.536728,-0.132426 -1.109398,-0.168516 -0.572673,-0.03608 -1.253844,-0.0943 -1.513713,-0.12935 l -0.472489,-0.06375 0.0432,0.547306 c 0.06154,0.779834 0.237167,1.857202 0.325765,1.99834 0.06986,0.11129 1.551296,0.284775 2.726356,0.319281 l 0.482195,0.01418 z m 1.2159801,0.537283 c 0,-0.247546 -0.05286,-0.316276 -0.284835,-0.370277 -0.303996,-0.07074 -0.772237,-0.432951 -0.702781,-0.543586 0.02296,-0.03654 -9.87e-4,-0.133159 -0.05341,-0.214609 -0.1130451,-0.175919 -0.1321131,0.45286 -0.03186,1.050051 0.06394,0.380862 0.06624,0.382391 0.568524,0.382391 0.4906,0 0.504329,-0.0088 0.504329,-0.30397 z M 6.4818689,15.48709 c -0.07286,-0.406597 -0.160264,-1.00312 -0.194234,-1.325607 -0.04811,-0.456608 -0.100211,-0.586355 -0.23557,-0.586452 -0.188873,-1.47e-4 -2.131754,-0.452056 -2.426584,-0.564423 -0.148274,-0.05651 -0.181259,-0.01266 -0.181259,0.241071 0,0.412151 0.271086,1.66419 0.453258,2.093433 0.150437,0.354458 0.374104,0.446352 1.877207,0.771229 0.87691,0.189538 0.85706,0.207188 0.707182,-0.629251 z m 9.1923101,0.330907 c 0.357729,-0.09783 0.374875,-0.124659 0.497252,-0.778568 0.14249,-0.761313 0.271259,-1.976001 0.208892,-1.970528 -0.02252,0.0024 -0.343829,0.0905 -0.714109,0.196666 -0.626269,0.179624 -0.645674,0.193603 -0.27803,0.200361 0.465298,0.0091 0.795905,0.159831 0.795905,0.364192 0,0.08015 -0.139828,0.30261 -0.310732,0.494235 -0.20737,0.232528 -0.310722,0.457405 -0.310722,0.676104 0,0.18023 -0.0964,0.460957 -0.214211,0.623845 -0.236375,0.326809 -0.212619,0.340932 0.325755,0.193693 z M 3.6469969,14.912187 c -0.111738,-0.353441 -0.232047,-0.947989 -0.267355,-1.321228 l -0.06421,-0.678596 -0.945478,-0.453461 c -0.520013,-0.249399 -0.987833,-0.473613 -1.039599,-0.498247 -0.125017,-0.05951 0.0016,1.417108 0.177809,2.073083 0.116733,0.434631 0.20589,0.55158 0.606358,0.79533 0.440551,0.268144 1.65866,0.801515 1.711561,0.749438 0.01325,-0.013 -0.06735,-0.312872 -0.179098,-0.66632 z m 13.7948261,0.273912 c 0.642664,-0.282898 0.752162,-0.373597 0.975984,-0.80845 0.210662,-0.409272 0.252114,-0.63826 0.252114,-1.392764 v -0.90297 l -0.750933,0.364328 c -0.413009,0.200376 -0.90241,0.417664 -1.087543,0.482845 -0.300338,0.105735 -0.336644,0.160696 -0.336767,0.509757 -7.9e-5,0.215176 -0.06997,0.781276 -0.155227,1.257986 -0.08534,0.476708 -0.155145,0.883178 -0.155212,0.903282 -6.18e-4,0.07719 0.563176,-0.108333 1.257584,-0.414014 z M 1.2752499,13.461161 c -0.05756,-0.24576 -0.105777,-0.725038 -0.107171,-1.065063 -0.002,-0.552213 -0.03573,-0.649536 -0.31326102,-0.91131 l -0.310727,-0.293075 v 0.250553 c 0,0.469189 0.68018802,2.618918 0.79338002,2.507481 0.02334,-0.0229 -0.0046,-0.242836 -0.062221,-0.488586 z m 8.362734,-0.02072 c 0.06841,-0.186255 0.124388,-0.513076 0.124388,-0.726278 0,-0.306804 -0.02815,-0.364657 -0.134864,-0.277444 -0.14744,0.120477 -0.590171,0.04763 -0.590171,-0.09712 0,-0.04959 -0.06736,-0.09004 -0.149713,-0.09004 -0.08234,0 -0.210955,-0.12618 -0.285803,-0.280408 -0.07485,-0.154237 -0.235663,-0.294455 -0.357354,-0.311609 -0.121694,-0.01717 -0.303265,-0.120399 -0.403495,-0.229437 -0.100229,-0.109035 -0.288498,-0.198243 -0.418377,-0.198243 -0.129881,0 -0.362164,-0.04714 -0.516192,-0.104823 -0.154027,-0.05768 -0.298142,-0.08701 -0.320252,-0.06527 -0.08671,0.0854 -0.241108,2.352889 -0.165287,2.427539 0.100102,0.09853 1.504873,0.260541 2.414405,0.278429 l 0.678334,0.01335 z m 9.7074631,-1.700724 c 0.02314,-0.196294 0.07401,-0.533645 0.112873,-0.749678 l 0.07073,-0.392781 -0.269501,0.265322 c -0.148222,0.145924 -0.318214,0.265313 -0.377776,0.265313 -0.05961,0 -0.108285,0.167721 -0.108285,0.372699 0,0.366619 0.0036,0.369676 0.207783,0.187572 0.114282,-0.101819 0.234853,-0.158484 0.267932,-0.12592 0.03304,0.03255 -0.0604,0.136975 -0.207792,0.23203 -0.253499,0.163524 -0.267381,0.21749 -0.257715,1.002349 l 0.01019,0.829525 0.254693,-0.764764 c 0.140087,-0.420629 0.273657,-0.925378 0.296834,-1.121667 z M 6.2434519,13.243766 c 0.0015,-0.12619 0.04821,-0.688301 0.103869,-1.249128 l 0.101202,-1.019705 -0.267325,-0.192744 c -0.147028,-0.106015 -0.305252,-0.290972 -0.351612,-0.411014 -0.06375,-0.165092 -0.257333,-0.2604 -0.794627,-0.3912489 -0.390687,-0.09514 -0.808609,-0.2006288 -0.928722,-0.2344177 -0.196338,-0.055216 -0.236358,0.00893 -0.396452,0.6349836 -0.16281,0.636708 -0.352278,2.480373 -0.254999,2.481255 0.02267,4.02e-4 0.577231,0.135775 1.232351,0.301268 1.467203,0.370642 1.552885,0.375093 1.556315,0.08072 z M 15.880514,13.08974 c 0.561269,-0.176982 0.562591,-0.178399 0.597319,-0.636243 0.04403,-0.58037 -0.08136,-2.4777949 -0.173348,-2.6244087 -0.04773,-0.07597 -0.346386,-0.03748 -0.959181,0.1236408 -0.48946,0.1286759 -1.130192,0.2664879 -1.423855,0.3062489 l -0.533916,0.0723 -6.23e-4,0.423804 c -6.22e-4,0.233087 -0.03049,0.733532 -0.06675,1.1121 -0.06429,0.670314 -0.05977,0.688288 0.173838,0.688288 0.292382,0 0.618699,0.272769 0.618699,0.517157 0,0.0988 0.05828,0.205037 0.129468,0.236083 0.199201,0.08683 1.013978,-0.02207 1.638486,-0.218966 z M 9.9366979,12.740285 c -0.03307,-0.08137 -0.0576,-0.05714 -0.06256,0.06164 -0.0046,0.107495 0.02,0.167718 0.0544,0.133828 0.03444,-0.03392 0.0381,-0.121824 0.0083,-0.195441 z M 17.841308,12.36546 c 0.711344,-0.339569 0.779586,-0.399122 0.809601,-0.7065 0.02352,-0.240975 -0.05679,-0.468842 -0.284842,-0.80775 -0.174682,-0.259638 -0.319058,-0.567446 -0.320837,-0.684017 -0.0019,-0.116574 -0.107637,-0.3790117 -0.235233,-0.5831985 l -0.23199,-0.3712503 -0.567491,0.2272339 c -0.435302,0.1743028 -0.56148,0.2726549 -0.541699,0.422233 0.01423,0.10725 0.05633,0.8267769 0.09368,1.5989509 0.07842,1.621899 -0.04366,1.535584 1.278814,0.904295 z M 3.3420099,12.173072 c 5.31e-4,-0.322471 0.09227,-1.02009 0.203372,-1.550248 0.111113,-0.53016 0.192066,-0.972293 0.1799,-0.9825138 -0.01216,-0.010217 -0.383262,-0.165752 -0.824647,-0.3456215 -0.441388,-0.1798724 -0.828668,-0.3686771 -0.860615,-0.4195679 -0.03192,-0.050909 -0.121367,-0.092531 -0.19871,-0.092531 -0.184499,0 -0.572183,1.6140272 -0.572183,2.3821342 0,0.55779 0.01069,0.579064 0.418033,0.832223 0.406301,0.252515 1.419272,0.737266 1.575804,0.754105 0.04272,0.0048 0.0783,-0.255497 0.07904,-0.57798 z m 7.2748661,-0.156705 c 0.280555,-0.176704 0.284872,-0.175916 0.287975,0.05238 0.0029,0.192359 0.01958,0.204071 0.09989,0.06885 0.07591,-0.127765 0.236897,-0.156051 0.746538,-0.131137 0.357388,0.01742 0.66589,0.07933 0.685558,0.137414 0.01968,0.05815 0.115784,0.105635 0.213579,0.105635 0.09781,0 0.232962,0.05433 0.300368,0.120675 0.06746,0.0663 0.141875,0.100769 0.165473,0.07646 0.02357,-0.02431 0.07655,-0.49204 0.117691,-1.039411 l 0.07476,-0.995221 -1.38478,0.06743 c -0.761616,0.03707 -1.408232,0.102229 -1.436898,0.144771 -0.02866,0.04253 -0.191799,0.09581 -0.362513,0.118383 l -0.3103984,0.04099 0.2589374,0.114661 c 0.252928,0.111994 0.253531,0.114804 0.02589,0.121119 -0.2101444,0.006 -0.2330464,0.05723 -0.2330464,0.523013 0,0.62868 0.1734954,1.025225 0.3502594,0.800537 0.06373,-0.08097 0.244006,-0.227969 0.400671,-0.32664 z m -0.129471,-1.081509 c 0,-0.124159 0.265904,-0.21485 0.629922,-0.21485 0.401143,0 0.386829,0.161802 -0.02137,0.242185 -0.443741,0.08739 -0.608513,0.07998 -0.608513,-0.02729 z m -0.7250331,0.44796 V 10.51607 h -0.611326 c -0.592567,0 -0.614816,0.0099 -0.725035,0.32112 -0.146419,0.413508 -0.153457,0.392672 0.13255,0.392672 0.296299,0 0.543159,0.26398 0.497104,0.531592 -0.04575,0.265955 0.163787,0.488097 0.460447,0.488097 0.239979,0 0.24626,-0.02213 0.24626,-0.866733 z m -8.569605,-0.586334 c 0.03147,-0.406601 0.141385,-1.0500135 0.244368,-1.4298023 L 1.6243809,8.676155 1.1487159,8.2078706 0.67305388,7.7395842 0.55678488,8.3969025 c -0.06394,0.3615221 -0.11627,1.0622022 -0.11627,1.5570646 0,0.8074119 0.0271,0.9347489 0.26421,1.2407689 0.145318,0.187564 0.30172402,0.341031 0.34757002,0.341031 0.04583,0 0.109057,-0.332674 0.140472,-0.739283 z m 6.907304,-0.121431 c 0.102729,-0.121866 0.06303,-0.158168 -0.232692,-0.212787 -0.196102,-0.03623 -0.464593,-0.05041 -0.596648,-0.03152 -0.229008,0.03273 -0.231683,0.04257 -0.05796,0.212779 0.220503,0.216037 0.71688,0.23367 0.887294,0.03151 z m 0.885478,-0.362921 c 0.03521,-0.05609 0.189434,-0.0974 0.342731,-0.0918 l 0.278726,0.01019 -0.258943,0.08164 c -0.156584,0.04936 -0.190639,0.08568 -0.08615,0.09181 0.438014,0.02576 0.500459,-0.0852 0.500459,-0.8893372 0,-0.7166136 -0.01287,-0.763064 -0.168619,-0.6097143 -0.139388,0.1372228 -0.148584,0.2225687 -0.05301,0.4924204 0.06358,0.1795345 0.08869,0.3692708 0.0558,0.4216384 -0.08508,0.1354848 -0.352055,-0.1062297 -0.352055,-0.3187782 0,-0.2409945 -0.804237,-0.5135549 -0.928989,-0.3148369 -0.05571,0.088769 -0.179587,0.1111805 -0.363406,0.065769 -0.413229,-0.1021081 -0.65198,0.01256 -0.840496,0.403671 -0.296094,0.6142928 -0.183567,0.6748888 1.375851,0.7409168 0.238746,0.01019 0.462892,-0.02751 0.4981,-0.0836 z m 3.4956871,0.03552 0.699144,-0.06499 -0.0026,-0.7245342 C 13.17588,8.8975992 13.031246,7.5767368 12.953359,7.5096951 12.935639,7.4944471 12.385137,7.5284801 11.73002,7.5853451 10.470795,7.69464 10.284438,7.7759957 10.079835,8.3058047 9.9527819,8.6348618 9.8237069,10.162621 9.9112099,10.302009 c 0.0785,0.125071 1.4530681,0.149492 2.5698711,0.04563 z M 15.14833,9.8970861 C 15.632549,9.7855303 16.089508,9.6569643 16.163795,9.611383 16.320747,9.515099 16.229987,9.0449379 15.800122,7.7277372 15.568075,7.0166663 15.514497,6.9334246 15.31781,6.9783826 c -0.121703,0.027814 -0.662862,0.1495285 -1.202575,0.2704646 -0.539713,0.1209361 -0.988304,0.2287159 -0.996852,0.2395068 -0.0091,0.010813 0.02181,0.2720008 0.06751,0.5804569 0.04568,0.3084568 0.08705,0.8132057 0.09195,1.1216646 0.0049,0.3084578 0.03841,0.6688836 0.07422,0.8009476 0.07506,0.2760959 0.221885,0.2683859 1.796255,-0.09433 z M 5.6275219,9.591016 C 5.5236659,9.3626452 5.3861159,9.1240386 5.3218549,9.0607741 c -0.06425,-0.063267 -0.116836,-0.220563 -0.116836,-0.3495566 0,-0.1289881 -0.04661,-0.2345278 -0.103578,-0.2345278 -0.133853,0 -0.130602,0.044817 0.05177,0.7137865 0.183107,0.6716049 0.180087,0.6388961 0.05176,0.5608342 -0.05696,-0.034671 -0.103575,-0.1750285 -0.103575,-0.3119278 0,-0.1368994 -0.04134,-0.2489064 -0.09181,-0.2489064 -0.0505,0 -0.124159,-0.2123546 -0.163695,-0.4718994 -0.0894,-0.586969 -0.156716,-0.7650323 -0.26442,-0.6994996 -0.123751,0.075293 -0.652159,1.4790463 -0.58255,1.5475784 0.08863,0.087262 1.326427,0.4239335 1.589409,0.4323125 l 0.227981,0.0072 z M 4.1516929,8.6551361 c 0.219149,-0.5571655 0.329515,-1.0134202 0.326808,-1.3510976 l -0.0039,-0.5098473 -0.681158,-0.29967 -0.681157,-0.2996686 -0.199208,0.2486836 c -0.304728,0.3804141 -1.123995,2.0556438 -1.057278,2.1619147 0.07122,0.1134547 1.68485,0.8909322 1.849102,0.8909322 0.06384,0 0.264985,-0.3785597 0.446975,-0.841247 z M 17.122971,9.2798895 c 0.442254,-0.1873036 0.511182,-0.2558481 0.511182,-0.5083824 0,-0.1605376 0.05508,-0.4947988 0.122509,-0.7428028 0.115105,-0.4237283 0.102229,-0.4914439 -0.213641,-1.1231321 -0.184882,-0.369716 -0.374602,-0.6722127 -0.421606,-0.6722127 -0.04696,0 -0.396448,0.1432753 -0.776549,0.3183874 -0.534454,0.2462192 -0.676191,0.3559995 -0.625338,0.4843552 0.08186,0.2065009 0.530813,1.8002509 0.614128,2.1798698 0.07401,0.3371722 0.132855,0.3419397 0.789315,0.063932 z M 2.1697629,7.5794057 c 0.238996,-0.4879513 0.516235,-1.010836 0.616085,-1.161969 L 2.9673869,6.1426524 2.4629749,5.6802085 C 2.0631779,5.3136797 1.9287989,5.2420926 1.8150339,5.3350488 1.4130529,5.6634885 0.69561488,7.3277539 0.80703188,7.6733491 c 0.05999,0.186101 0.72445102,0.807134 0.85410702,0.7982877 0.04074,-0.00264 0.269619,-0.4042805 0.508624,-0.8922311 z M 12.587715,7.3923608 c 0.386916,-0.055596 0.390539,-0.060387 0.323117,-0.4291667 -0.08937,-0.4886776 -0.212915,-0.6278642 -0.557378,-0.6278642 -0.246747,0 -0.277238,-0.033216 -0.234186,-0.2549224 0.04731,-0.2437148 0.232512,-0.3655386 0.232512,-0.1529555 0,0.056079 0.06995,0.1019674 0.155352,0.1019674 0.195755,0 0.19432,-0.069082 -0.01693,-0.8172942 -0.183981,-0.6514454 -0.219693,-0.6723333 -0.892064,-0.5217383 -0.275635,0.061744 -0.280768,0.073945 -0.123599,0.293846 0.09018,0.1261884 0.219605,0.2308904 0.287581,0.2326775 0.06803,0.00154 0.208778,0.066795 0.312885,0.1444783 0.179094,0.1336297 0.179841,0.1554244 0.014,0.4046353 -0.128598,0.1932291 -0.264421,0.2633954 -0.50985,0.2633954 -0.203011,0 -0.408256,0.08018 -0.522024,0.2039395 -0.103101,0.112169 -0.139346,0.2039428 -0.08049,0.2039428 0.05879,0 0.164962,-0.068826 0.23588,-0.1529556 0.07089,-0.084119 0.198855,-0.1529583 0.284311,-0.1529583 0.121945,0 0.129287,0.030926 0.03417,0.1437704 -0.09615,0.1140478 -0.07259,0.1772838 0.113919,0.3058976 l 0.235115,0.1621292 -0.227305,0.2237768 c -0.257543,0.2535428 -0.442928,0.1801775 -0.221933,-0.087828 0.08514,-0.1032183 0.0064,-0.075465 -0.192391,0.067689 -0.185154,0.1334314 -0.336639,0.2989865 -0.336639,0.3678888 0,0.068909 -0.05826,0.1514479 -0.129466,0.1834314 -0.139849,0.062801 1.175456,-0.013822 1.815477,-0.1057918 z M 14.216142,7.1091494 C 14.586428,7.0280524 15.01657,6.9140512 15.171999,6.8558118 L 15.454612,6.7499178 15.244209,6.2666777 C 15.021205,5.754505 14.382097,4.6610983 14.145906,4.3876742 14.016708,4.2381036 13.945103,4.2383309 13.28781,4.3903042 c -0.394431,0.091251 -0.74465,0.192987 -0.77827,0.2260859 -0.03363,0.033106 0.03061,0.3989683 0.142637,0.8130403 0.112067,0.4140739 0.256764,1.0167628 0.321567,1.3393089 0.105539,0.5253901 0.141295,0.5813116 0.343478,0.5371096 0.124123,-0.027143 0.528636,-0.1156878 0.89892,-0.1967823 z m 3.972313,-0.8693123 c 0.07301,-0.1437719 0.187922,-0.2499271 0.255328,-0.2359056 0.06745,0.013989 0.122561,5.273e-4 0.122561,-0.03057 0,-0.1203728 -0.32031,-0.6577396 -0.392054,-0.6577396 -0.189934,0 -0.331795,0.4302648 -0.269112,0.8161895 0.05956,0.3664319 0.04439,0.4074456 -0.150954,0.4074456 -0.153159,0 -0.199075,0.046362 -0.15581,0.1573565 0.05413,0.1387966 0.08466,0.1365513 0.259297,-0.019015 0.108879,-0.097004 0.257715,-0.2940036 0.330744,-0.4377732 z M 16.821607,6.2248981 C 17.069473,6.0943043 16.989299,5.7316954 16.582715,5.1443093 16.255681,4.6718456 16.181632,4.409167 16.48501,4.7976995 l 0.19274,0.2468359 0.07037,-0.3155919 C 16.827205,4.3744978 16.642241,3.6236747 16.409095,3.3527194 16.216258,3.1286202 16.044756,3.1276679 15.688439,3.3488594 l -0.281177,0.1744435 0.188821,-0.2161948 c 0.183754,-0.2103854 0.182952,-0.2180332 -0.02979,-0.2845022 -0.120229,-0.037585 -0.333218,-0.24705 -0.473295,-0.4655197 -0.140083,-0.218467 -0.36818,-0.470409 -0.506876,-0.559879 -0.446726,-0.2881644 -1.253413,-0.5470045 -1.409248,-0.452182 -0.08018,0.04882 -0.123915,0.1054054 -0.0971,0.1257594 0.02677,0.020354 0.30514,0.2136495 0.618465,0.429546 0.313319,0.2158965 0.849323,0.6261863 1.191119,0.9117549 0.651693,0.5444756 0.796936,0.6444977 1.415129,0.9745451 0.30531,0.1629971 0.367781,0.2461732 0.32001,0.426042 -0.05858,0.2206377 -0.06224,0.219932 -0.285052,-0.055139 C 16.215333,4.2042847 16.038612,4.0680392 15.946741,4.0547642 15.85487,4.0414832 15.686352,3.9474504 15.572243,3.8457923 15.371449,3.6668935 15.346332,3.6684868 14.790461,3.8953133 c -0.315885,0.1288942 -0.574333,0.2702455 -0.574333,0.3141186 0,0.043858 0.174777,0.3476544 0.388405,0.6750756 0.213626,0.3274185 0.523526,0.8762413 0.688667,1.2196036 l 0.300255,0.6242984 0.517589,-0.2008512 C 16.395717,6.4170987 16.715462,6.2809634 16.82159,6.2250452 Z M 15.93864,4.4743847 c -0.10617,-0.3900456 -0.06652,-0.4429912 0.144765,-0.1933191 0.111733,0.1320287 0.177343,0.2811593 0.145808,0.3314015 -0.09989,0.1591256 -0.225975,0.099212 -0.290573,-0.1380824 z M 4.7566759,6.3739469 c 0.09784,-0.1470056 0.187668,-0.4796819 0.19962,-0.7392777 0.0119,-0.2596007 0.07254,-0.7473136 0.134629,-1.0838127 0.06209,-0.3365008 0.113163,-0.6328431 0.113491,-0.6585412 8.77e-4,-0.088752 -0.956635,0.8643861 -1.461175,1.4540952 -0.278392,0.3253919 -0.506168,0.6342442 -0.506168,0.6863418 0,0.1188 0.921694,0.5973293 1.162844,0.6037302 0.09838,0.00266 0.258918,-0.1155277 0.356759,-0.2625356 z m 4.370807,0.1083933 c -0.113906,-0.1121369 -0.248853,-0.1372821 -0.458617,-0.085456 -0.265161,0.065513 -0.275283,0.081885 -0.09385,0.151725 0.111856,0.043068 0.318238,0.081512 0.458619,0.085451 0.231119,0.00661 0.239991,-0.00779 0.09385,-0.1517252 z M 4.5455869,4.2926249 5.1021399,3.7284931 4.7930269,3.548726 C 4.5466429,3.4054399 4.4393249,3.3924506 4.2642039,3.484703 4.1433689,3.548375 3.9443979,3.574612 3.8220469,3.54302 3.6470909,3.497833 3.4392389,3.642311 2.8486609,4.2195971 2.4356479,4.6233064 2.0977339,5.0062804 2.0977339,5.070642 c 0,0.064352 0.210138,0.3077259 0.466974,0.5407921 l 0.466979,0.4237682 0.478672,-0.5892266 c 0.263272,-0.3240731 0.729124,-0.8430871 1.035228,-1.1533632 z m 5.320358,0.9659964 V 4.7038101 h -0.621459 c -0.611781,0 -0.82004,0.1281412 -0.414303,0.2549234 0.113934,0.03563 0.207154,0.1025472 0.207154,0.1487733 0,0.046227 0.116522,0.1128329 0.258938,0.1480237 0.182888,0.045193 0.258939,0.1332917 0.258939,0.2999696 0,0.1297909 0.02981,0.2653268 0.06623,0.3011947 0.151841,0.1494864 0.24449,-0.077147 0.244492,-0.5980735 z m 7.5349801,0.030983 c -0.04358,-0.1286746 -0.579301,-0.3296992 -0.66191,-0.2483751 -0.02943,0.029015 0.02473,0.170564 0.120628,0.3145435 0.144058,0.2164455 0.209364,0.243271 0.377087,0.1548978 0.111576,-0.058794 0.185466,-0.1582678 0.164195,-0.2210662 z m 0.601886,-0.1681302 c -0.127107,-0.2024777 -0.265076,-0.1165899 -0.265076,0.1650173 0,0.2550176 0.01313,0.2638034 0.167615,0.1117548 0.09221,-0.09076 0.136054,-0.2153064 0.09746,-0.2767721 z m -7.962534,-0.028896 c -0.03306,-0.081339 -0.05761,-0.057169 -0.06256,0.061616 -0.0047,0.107493 0.01999,0.1677201 0.05439,0.133835 0.03444,-0.033866 0.03811,-0.1218333 0.0084,-0.1954424 z M 3.7031629,3.3076039 c 0.593679,-0.4729845 1.625193,-1.1074499 2.53808,-1.5611277 0.345901,-0.1718987 0.60107,-0.3568837 0.56705,-0.41108 -0.12881,-0.2051881 -0.450965,-0.081963 -1.075279,0.4113135 -0.636377,0.502805 -1.002919,0.6755278 -0.721934,0.3401962 0.130178,-0.1553586 0.120343,-0.1582587 -0.116787,-0.034399 -0.506234,0.2644023 -0.811411,0.5374173 -0.75694,0.6771692 0.03844,0.098596 0.0025,0.1211689 -0.119661,0.075047 -0.125493,-0.047389 -0.355356,0.1172338 -0.816964,0.5851686 -0.353286,0.3581269 -0.753252,0.8117428 -0.888814,1.0080342 -0.218272,0.3160649 -0.182416,0.2977155 0.313449,-0.1604127 0.307956,-0.2845144 0.792965,-0.7029736 1.0778,-0.9299013 z m 6.266358,0.4724805 c 0,-0.521885 -0.03782,-0.7987796 -0.103573,-0.7587555 -0.05696,0.034656 -0.103573,0.1719371 -0.103573,0.305056 0,0.1618017 -0.07724,0.2657666 -0.233051,0.313633 -0.128173,0.039376 -0.256349,0.1000894 -0.284835,0.1349151 -0.02848,0.034803 -0.227442,0.1922272 -0.442139,0.3497946 -0.214689,0.1575632 -0.36342,0.3293778 -0.330507,0.381806 0.03291,0.052434 0.383356,0.09532 0.778757,0.09532 h 0.718921 z m -0.585714,0.2565394 c -0.03376,-0.086542 -0.0354,-0.1829108 -0.0036,-0.2141464 0.0907,-0.089295 0.278629,0.062153 0.278629,0.2245648 0,0.1956645 -0.197578,0.1881807 -0.274988,-0.010388 z m 2.8201301,0.4388606 c 0.076,-0.074833 -0.170575,-0.6027785 -0.402919,-0.8626463 -0.110272,-0.1233305 -0.17275,-0.2954066 -0.138846,-0.3823813 0.03843,-0.098637 0.0049,-0.158145 -0.09044,-0.158145 -0.08368,0 -0.152118,-0.068491 -0.152118,-0.15218 0,-0.3206786 -0.434668,-0.6635767 -0.841174,-0.6635767 -0.507798,0 -0.6121321,0.1800671 -0.263083,0.4540772 0.151608,0.1190096 0.275657,0.2694143 0.275657,0.3342391 0,0.06482 0.08439,0.177806 0.187595,0.2510896 0.279193,0.1983018 0.408643,0.43959 0.191909,0.3577096 -0.225532,-0.085206 -0.220586,0.022927 0.0093,0.1944158 0.169963,0.1270285 0.168355,0.1357658 -0.02591,0.140269 -0.153463,0.00357 -0.171348,0.027166 -0.06899,0.09102 0.109362,0.068256 0.100612,0.1004003 -0.04201,0.1542748 -0.113269,0.042777 -0.263706,-0.00916 -0.404852,-0.1396985 -0.123675,-0.1142595 -0.256256,-0.176737 -0.294755,-0.1388366 -0.132012,0.129966 -0.0699,0.2388604 0.136276,0.2388604 0.113448,0 0.264934,0.092495 0.33662,0.2055416 0.114426,0.1804345 0.216198,0.2007589 0.833138,0.1663632 0.386538,-0.021577 0.726193,-0.062238 0.754807,-0.090399 z m 1.054445,-0.1808788 c 0.299251,-0.066623 0.566617,-0.1569879 0.594139,-0.2008396 0.05365,-0.08544 -0.763738,-1.1234172 -0.884661,-1.1234172 -0.129633,0 -0.195038,0.5853367 -0.101347,0.9069639 0.111594,0.383064 0.0229,0.4523578 -0.34091,0.2665076 -0.28114,-0.143597 -0.329101,-0.099138 -0.213348,0.1978112 0.03519,0.090383 0.140099,0.144033 0.23304,0.119215 0.09295,-0.02481 0.413839,-0.099626 0.713087,-0.1662388 z M 14.697378,3.8348194 15.288085,3.5776297 14.945427,3.2295801 C 14.756958,3.0381524 14.235689,2.6213277 13.787029,2.3033079 13.139422,1.8442558 12.918118,1.7382167 12.713318,1.7888203 c -0.339739,0.083948 -0.325493,0.2085488 0.05562,0.4859048 0.172442,0.1255144 0.290976,0.2860931 0.263394,0.3568344 -0.02757,0.070744 0.180495,0.3938721 0.462367,0.7180625 0.28188,0.324186 0.512917,0.623843 0.513414,0.6659076 0.0015,0.1118985 0.04122,0.1014306 0.689307,-0.1807102 z M 13.775945,3.2680823 c -0.240654,-0.1379915 -0.2291,-0.2690471 0.03084,-0.3502778 0.25423,-0.079432 0.52321,0.1113918 0.443883,0.3149183 -0.06617,0.1696233 -0.22054,0.1811262 -0.474748,0.035372 z m -3.440243,0.3027109 c 0.04431,-0.1374727 0.0093,-0.2743977 -0.0966,-0.3787496 -0.152291,-0.1499297 -0.166009,-0.1321441 -0.166009,0.2153132 0,0.4127203 0.151786,0.5071867 0.262606,0.1634364 z M 5.1014409,3.4801882 c 0,-0.056079 -0.07267,-0.1019663 -0.16148,-0.1019663 -0.08881,0 -0.132665,0.045882 -0.09746,0.1019663 0.03521,0.056084 0.107872,0.1019695 0.161473,0.1019695 0.05362,0 0.09747,-0.045884 0.09747,-0.1019695 z m -0.978041,-0.144617 c 0.110493,-0.079532 0.172613,-0.1724603 0.138047,-0.2064918 -0.03456,-0.034004 -0.174319,0.029509 -0.310563,0.1412296 -0.281393,0.230706 -0.134493,0.2862735 0.172516,0.065268 z m 5.334636,-0.4086297 c -0.16912,-0.2006159 -0.01889,-0.4664497 0.263625,-0.4664497 0.136324,0 0.24786,-0.039524 0.24786,-0.087831 0,-0.1086613 -0.522538,-0.023442 -0.699139,0.1139984 -0.164646,0.1281485 -0.165798,0.4291793 -0.0026,0.6863908 0.109176,0.1721009 0.139166,0.1782679 0.215339,0.044265 0.05296,-0.093154 0.04289,-0.2097842 -0.02504,-0.2903761 z M 8.9312079,2.7993132 c 0.229039,-0.509741 0.163918,-0.6742316 -0.24537,-0.6198178 -0.211217,0.02807 -0.33531,0.5351085 -0.157453,0.6433276 0.186532,0.1134973 -0.01584,0.2530336 -0.214866,0.1481635 -0.211686,-0.1115353 -0.519097,-0.038604 -0.519097,0.1231459 0,0.056076 0.06986,0.075578 0.155248,0.043325 0.08539,-0.032257 0.260172,-0.017141 0.388411,0.03363 0.357358,0.1414086 0.364596,0.13687 0.593127,-0.3717488 z M 8.7266069,2.6194694 c 0,-0.087435 0.04661,-0.1589745 0.103576,-0.1589745 0.05696,0 0.103578,0.043199 0.103578,0.095952 0,0.052779 -0.04661,0.1243128 -0.103578,0.1589737 -0.05696,0.034654 -0.103576,-0.00851 -0.103576,-0.095951 z m -1.053719,0.070466 c -0.02794,-0.3160195 0.0067,-0.3998604 0.199216,-0.483044 0.128176,-0.055377 0.233048,-0.1356613 0.233048,-0.1784468 0,-0.1588748 -0.464342,-0.070377 -0.7956,0.1516414 -0.348533,0.2335913 -0.463551,0.421249 -0.196319,0.3202906 0.140545,-0.053093 0.441124,0.3263688 0.392463,0.4954671 -0.01212,0.042066 0.02817,0.076476 0.0895,0.076476 0.06581,0 0.09766,-0.1566787 0.07768,-0.3823868 z M 7.2765409,2.0606245 c 0.256261,-0.1996512 0.256795,-0.2033447 0.05177,-0.3565555 -0.248493,-0.1857004 -0.332513,-0.1892895 -0.684476,-0.029238 -0.259283,0.1179124 -0.264444,0.1363318 -0.128005,0.4570808 0.153732,0.3614112 0.21236,0.3559153 0.760693,-0.071299 z m 1.073217,0.1449566 c 0.03279,-0.084132 0.01446,-0.1529572 -0.04071,-0.1529572 -0.05519,0 -0.100327,0.068824 -0.100327,0.1529572 0,0.084123 0.0183,0.1529528 0.04072,0.1529528 0.02238,0 0.06753,-0.068824 0.100323,-0.1529528 z M 10.456404,1.3388387 c 0.03498,-0.084123 0.05574,-0.2040689 0.04608,-0.266537 -0.03337,-0.21496686 0.514944,-0.056378 1.205041,0.3485076 0.619391,0.3634073 0.955016,0.443467 0.955016,0.227818 0,-0.070781 -1.767126,-0.92160642 -1.914121,-0.92160642 -0.03637,0 -0.03714,0.0460287 -0.0018,0.1022762 0.06883,0.10968266 -0.235047,0.091456 -0.42516,-0.025525 -0.07939,-0.0488289 -0.113638,0.15437106 -0.112268,0.66575422 0.0017,0.6274171 0.01537,0.6833609 0.0928,0.3791346 0.04999,-0.196293 0.11948,-0.4257234 0.154502,-0.5098462 z M 9.3108719,1.9192958 c 0.03947,-0.038832 0.01732,-0.070607 -0.04914,-0.070607 -0.06646,0 -0.120842,-0.050795 -0.120842,-0.1128803 0,-0.062074 0.0632,-0.089002 0.140463,-0.05981 0.167581,0.063304 0.536695,-0.6290178 0.404661,-0.75900436 -0.0481,-0.0473633 -0.45461,0.11990396 -0.903366,0.37167216 -0.448756,0.2517646 -0.834996,0.4389827 -0.85831,0.4160298 -0.03531,-0.034785 0.617231,-0.43137 1.579072,-0.95965832 0.113934,-0.062574 0.153401,-0.1151721 0.0877,-0.1168784 -0.169291,-0.00439 -2.244932,0.71071132 -2.349278,0.80938082 -0.143004,0.1352233 0.809923,0.4422865 1.0862,0.3500077 0.133755,-0.044677 0.285524,-0.069719 0.337272,-0.055631 0.05175,0.014088 0.306133,-0.1718496 0.565301,-0.4131664 l 0.471217,-0.43875306 -0.43583,0.48207776 c -0.23971,0.265145 -0.435833,0.5287012 -0.435833,0.5856842 0,0.1106894 0.361062,0.089326 0.480686,-0.028448 z m 0.296134,0.031362 c 0.03521,-0.056079 0.01465,-0.1019684 -0.04568,-0.1019684 -0.06032,0 -0.109689,0.04588 -0.109689,0.1019684 0,0.056088 0.02055,0.1019695 0.04567,0.1019695 0.02512,0 0.07447,-0.04588 0.109688,-0.1019695 z M 13.0768,1.4569528 c 0,-0.074687 -0.167411,-0.1380268 -1.020643,-0.3861776 -0.09376,-0.02728 0.03922,0.06569 0.295623,0.2066038 0.485039,0.2666036 0.72502,0.3260434 0.72502,0.1795738 z m 0.923557,0.048654 c -0.15993,-0.1377522 -0.509241,-0.2597356 -0.509241,-0.1778317 0,0.053946 0.08157,0.1190648 0.181253,0.1447161 0.24987,0.064286 0.379355,0.077355 0.327988,0.033109 z M 7.8979989,1.0360703 C 8.7526849,0.70377198 8.6425609,0.63719178 7.6549679,0.88913184 6.9169779,1.0773979 6.8378439,1.11552 6.9184479,1.2439196 c 0.08449,0.1345868 0.115963,0.1279064 0.979551,-0.2078493 z m 2.1507651,-0.061987 0.02746,-0.29804346 -0.1532581,0.25492256 C 9.7331609,1.2466784 9.7232619,1.3684775 9.8918359,1.3139838 9.9630459,1.2909508 10.033665,1.1380095 10.04877,0.97408334 Z m 3.235194,0.27395736 c 0,-0.091713 -1.493316,-0.52644342 -1.767852,-0.51464832 -0.08157,0.00369 0.271176,0.13592626 0.783884,0.29427182 0.51269,0.1583447 0.943828,0.293136 0.958071,0.2995392 0.01427,0.00649 0.02594,-0.029247 0.02594,-0.079164 z"
     style="fill:#ffffff;stroke-width:0.842992" /></svg>
