<svg xmlns="http://www.w3.org/2000/svg" width="469.261" height="528.462" viewBox="0 0 469.261 528.462">
  <g id="Group_22273" data-name="Group 22273" transform="translate(-263.653 256.266)">
    <g id="Group_22260" data-name="Group 22260" transform="translate(263.653 -256.266)">
      <g id="Group_22243" data-name="Group 22243" transform="translate(0 0)">
        <g id="Group_22262" data-name="Group 22262">
          <path id="Path_5907" data-name="Path 5907" d="M557.8,308.477a77.119,77.119,0,0,1-73.25,77.021,77.119,77.119,0,0,1,73.25,77.021A77.12,77.12,0,0,1,631.047,385.5,77.12,77.12,0,0,1,557.8,308.477" transform="translate(-338.096 65.944)" fill="#a18c00"/>
          <path id="Path_5908" data-name="Path 5908" d="M336.9,308.477a77.119,77.119,0,0,1-73.25,77.021,77.119,77.119,0,0,1,73.25,77.021A77.12,77.12,0,0,1,410.151,385.5,77.12,77.12,0,0,1,336.9,308.477" transform="translate(-263.653 65.944)" fill="#017f79"/>
          <path id="Path_5909" data-name="Path 5909" d="M778.695,308.477a77.119,77.119,0,0,1-73.25,77.021,77.119,77.119,0,0,1,73.25,77.021A77.12,77.12,0,0,1,851.943,385.5a77.12,77.12,0,0,1-73.248-77.021" transform="translate(-412.539 65.944)" fill="#017f79"/>
          <path id="Path_5914" data-name="Path 5914" d="M557.8,61.477a77.12,77.12,0,0,1-73.25,77.021,77.119,77.119,0,0,1,73.25,77.021A77.12,77.12,0,0,1,631.047,138.5,77.12,77.12,0,0,1,557.8,61.477" transform="translate(-338.096 149.185)" fill="#017f79"/>
          <path id="Path_5917" data-name="Path 5917" d="M778.695,61.477a77.12,77.12,0,0,1-73.25,77.021,77.119,77.119,0,0,1,73.25,77.021A77.12,77.12,0,0,1,851.943,138.5a77.12,77.12,0,0,1-73.248-77.021" transform="translate(-412.539 149.185)" fill="#a18c00"/>
          <path id="Path_5920" data-name="Path 5920" d="M289.908,64.506c-9.143,0-15.942,4.783-20.209,14.218-4.164,9.2-4.613,20.236-4.613,24.552a.088.088,0,1,1-.176,0c0-4.315-.449-15.348-4.612-24.552-4.267-9.434-11.067-14.218-20.209-14.218a.088.088,0,1,1,0-.176c9.143,0,15.942-4.784,20.209-14.218,4.164-9.205,4.612-20.237,4.612-24.552a.088.088,0,1,1,.176,0c0,4.315.449,15.347,4.612,24.552,4.267,9.434,11.066,14.218,20.209,14.218a.088.088,0,0,1,0,.176" transform="translate(-118.545 300.285)" fill="#fdb924"/>
          <path id="Path_5940" data-name="Path 5940" d="M557.8,61.477a77.12,77.12,0,0,1-73.25,77.021,77.119,77.119,0,0,1,73.25,77.021A77.12,77.12,0,0,1,631.047,138.5,77.12,77.12,0,0,1,557.8,61.477" transform="translate(-191.643 -14.575)" fill="#017f79"/>
          <path id="Path_5943" data-name="Path 5943" d="M289.908,64.506c-9.143,0-15.942,4.783-20.209,14.218-4.164,9.2-4.613,20.236-4.613,24.552a.088.088,0,1,1-.176,0c0-4.315-.449-15.348-4.612-24.552-4.267-9.434-11.067-14.218-20.209-14.218a.088.088,0,1,1,0-.176c9.143,0,15.942-4.784,20.209-14.218,4.164-9.205,4.612-20.237,4.612-24.552a.088.088,0,1,1,.176,0c0,4.315.449,15.347,4.612,24.552,4.267,9.434,11.066,14.218,20.209,14.218a.088.088,0,0,1,0,.176" transform="translate(27.952 146.243)" fill="#fdb924"/>
          <path id="Path_5944" data-name="Path 5944" d="M289.908,64.506c-9.143,0-15.942,4.783-20.209,14.218-4.164,9.2-4.613,20.236-4.613,24.552a.088.088,0,1,1-.176,0c0-4.315-.449-15.348-4.612-24.552-4.267-9.434-11.067-14.218-20.209-14.218a.088.088,0,1,1,0-.176c9.143,0,15.942-4.784,20.209-14.218,4.164-9.205,4.612-20.237,4.612-24.552a.088.088,0,1,1,.176,0c0,4.315.449,15.347,4.612,24.552,4.267,9.434,11.066,14.218,20.209,14.218a.088.088,0,0,1,0,.176" transform="translate(174.406 -25.472)" fill="#fdb924"/>
        </g>
      </g>
      <g id="Group_22253" data-name="Group 22253" transform="translate(222.697 147.349)">
        <g id="Group_22261" data-name="Group 22261" transform="translate(0 0)">
          <path id="Path_5925" data-name="Path 5925" d="M895.97,207.541a77.141,77.141,0,0,1-75.621,61.936,77.142,77.142,0,0,1,75.621,61.936Z" transform="translate(-673.96 -47.389)" fill="#20419a"/>
          <path id="Path_5927" data-name="Path 5927" d="M672.8,184.477a77.12,77.12,0,0,1-73.25,77.021,77.12,77.12,0,0,1,73.25,77.021A77.12,77.12,0,0,1,746.047,261.5,77.12,77.12,0,0,1,672.8,184.477" transform="translate(-599.549 -39.616)" fill="#20419a"/>
          <path id="Path_5928" data-name="Path 5928" d="M696.937,265.481a25.829,25.829,0,0,1-24.533,25.8,25.829,25.829,0,0,1,24.533,25.8,25.829,25.829,0,0,1,24.532-25.8,25.829,25.829,0,0,1-24.532-25.8" transform="translate(-624.101 -66.915)" fill="#fcfcfc"/>
          <path id="Path_5931" data-name="Path 5931" d="M921.972,262a25.829,25.829,0,0,1-24.533,25.8,25.829,25.829,0,0,1,24.533,25.8A25.829,25.829,0,0,1,946.5,287.8,25.829,25.829,0,0,1,921.972,262" transform="translate(-699.94 -65.742)" fill="#fcfcfc"/>
          <path id="Path_5938" data-name="Path 5938" d="M895.97,207.541a77.141,77.141,0,0,1-75.621,61.936,77.142,77.142,0,0,1,75.621,61.936Z" transform="translate(-673.96 -207.541)" fill="#20419a"/>
          <path id="Path_5939" data-name="Path 5939" d="M921.972,262a25.829,25.829,0,0,1-24.533,25.8,25.829,25.829,0,0,1,24.533,25.8A25.829,25.829,0,0,1,946.5,287.8,25.829,25.829,0,0,1,921.972,262" transform="translate(-699.94 -225.894)" fill="#fcfcfc"/>
        </g>
      </g>
    </g>
  </g>
</svg>
